<svg width="75" height="75" viewBox="0 0 75 75" fill="none" xmlns="http://www.w3.org/2000/svg">
<path d="M37.5031 6.22815C20.2688 6.23127 6.25 20.25 6.25 37.4813C6.25313 54.7125 20.2719 68.7313 37.5 68.7313C54.7344 68.7313 68.7531 54.7125 68.7531 37.4813C68.7531 20.25 54.7344 6.23127 37.5031 6.22815V6.22815ZM37.5 62.4813C23.7188 62.4813 12.5031 51.2656 12.5 37.4813C12.5 23.6969 23.7156 12.4813 37.5031 12.4781C51.2875 12.4813 62.5031 23.6969 62.5031 37.4813C62.5031 51.2656 51.2875 62.4813 37.5 62.4813V62.4813Z" fill="#FBFBFB"/>
<path d="M37.5032 25.0031L24.9875 37.5187H34.3782V49.9999H40.6282V37.5187H50.0157L37.5032 25.0031Z" fill="#FBFBFB"/>
</svg>
