<svg width="20" height="19" viewBox="0 0 20 19" fill="none" xmlns="http://www.w3.org/2000/svg">
<path d="M7.74886 18.3497C9.52886 17.6497 9.13886 15.7197 8.23886 14.4997C7.34886 13.2497 6.11886 12.3897 4.87886 11.5597C3.99411 11.002 3.20415 10.3066 2.53886 9.49967C2.25886 9.16967 1.68886 8.55967 2.26886 8.43967C2.85886 8.31967 3.87886 8.89967 4.39886 9.11967C5.30886 9.49967 6.20886 9.93967 7.04886 10.4597L8.05886 8.75967C6.49886 7.72967 4.49886 6.81967 2.63886 6.54967C1.57886 6.38967 0.458856 6.60967 0.0988564 7.75967C-0.221144 8.74967 0.288856 9.74967 0.868856 10.5297C2.23886 12.3597 4.36886 13.2397 5.95886 14.8197C6.29886 15.1497 6.70886 15.5397 6.90886 15.9997C7.11886 16.4397 7.06886 16.4697 6.59886 16.4697C5.35886 16.4697 3.80886 15.4997 2.79886 14.8597L1.78886 16.5597C3.31886 17.4997 5.87886 18.9697 7.74886 18.3497ZM18.8389 2.74967C19.0589 2.52967 19.0589 2.16967 18.8389 1.95967L17.5389 0.659667C17.4341 0.558722 17.2943 0.502319 17.1489 0.502319C17.0034 0.502319 16.8636 0.558722 16.7589 0.659667L15.7389 1.67967L17.8189 3.75967L18.8389 2.74967ZM8.99886 8.41967V10.4997H11.0789L17.2289 4.34967L15.1489 2.26967L8.99886 8.41967Z" fill="#2D2D2D"/>
</svg>
