<svg width="50" height="30" viewBox="0 0 50 30" fill="none" xmlns="http://www.w3.org/2000/svg">
<path d="M46.4998 12.6975L45.205 7.79289C45.559 7.72168 45.8246 7.42427 45.8246 7.06794V6.27715C45.8246 4.56017 44.3495 3.16336 42.5365 3.16336H36.6389V1.5322C36.6389 0.687309 35.9131 0 35.0209 0H4.9582C4.06601 0 3.34023 0.687309 3.34023 1.5322V14.976C3.34023 15.3854 3.69072 15.7174 4.12314 15.7174C4.55547 15.7174 4.90605 15.3855 4.90605 14.976V1.5322C4.90605 1.50492 4.92939 1.48282 4.9582 1.48282H35.0208C35.0496 1.48282 35.0729 1.50492 35.0729 1.5322V14.9762C35.0729 15.3856 35.4234 15.7176 35.8558 15.7176C36.2882 15.7176 36.6388 15.3857 36.6388 14.9762V14.1357H45.874C45.8748 14.1357 45.8754 14.1359 45.8761 14.1359C45.8768 14.1359 45.8775 14.1358 45.8782 14.1358C47.0146 14.1365 47.9796 14.8429 48.311 15.8162H45.8766C45.4443 15.8162 45.0937 16.1481 45.0937 16.5576V18.1392C45.0937 19.4202 46.1941 20.4622 47.5468 20.4622H48.4341V23.7243H46.387C45.7145 21.8855 43.8687 20.561 41.7012 20.561C39.5338 20.561 37.6879 21.8855 37.0155 23.7243H36.6386V18.1391C36.6386 17.7297 36.2881 17.3977 35.8556 17.3977C35.4233 17.3977 35.0727 17.7296 35.0727 18.1391V23.7241H18.8298C18.1573 21.8853 16.3115 20.5608 14.144 20.5608C11.9766 20.5608 10.1307 21.8853 9.4583 23.7241H4.9582C4.92939 23.7241 4.90605 23.702 4.90605 23.6747V22.0436H8.29853C8.73085 22.0436 9.08144 21.7117 9.08144 21.3022C9.08144 20.8927 8.73095 20.5608 8.29853 20.5608H0.78291C0.350586 20.5608 0 20.8927 0 21.3022C0 21.7117 0.350488 22.0436 0.78291 22.0436H3.34033V23.6747C3.34033 24.5196 4.06611 25.2069 4.9583 25.2069H9.1872C9.18701 25.2234 9.18584 25.2397 9.18584 25.2563C9.18584 27.8453 11.4102 29.9517 14.144 29.9517C16.8779 29.9517 19.1022 27.8453 19.1022 25.2563C19.1022 25.2396 19.1011 25.2234 19.1009 25.2069H36.7444C36.7442 25.2234 36.743 25.2397 36.743 25.2563C36.743 27.8453 38.9674 29.9517 41.7012 29.9517C44.4351 29.9517 46.6595 27.8453 46.6595 25.2563C46.6595 25.2396 46.6583 25.2234 46.6581 25.2069H49.217C49.6493 25.2069 49.9999 24.875 49.9999 24.4655V16.5575C50 14.605 48.4788 12.9828 46.4998 12.6975ZM36.6389 4.64608H42.5365C43.4862 4.64608 44.2589 5.37778 44.2589 6.27715V6.32653H36.6389V4.64608ZM36.6389 12.653V7.80926H43.5954L44.8741 12.653H36.6389ZM14.144 28.4691C12.2734 28.4691 10.7516 27.028 10.7516 25.2565C10.7516 23.4849 12.2734 22.0438 14.144 22.0438C16.0146 22.0438 17.5365 23.4849 17.5365 25.2565C17.5365 27.028 16.0146 28.4691 14.144 28.4691ZM41.7014 28.4691C39.8308 28.4691 38.309 27.028 38.309 25.2565C38.309 23.4849 39.8308 22.0438 41.7014 22.0438C43.5721 22.0438 45.0939 23.4849 45.0939 25.2565C45.0939 27.028 43.5721 28.4691 41.7014 28.4691ZM48.4343 18.9794H47.547C47.0577 18.9794 46.6596 18.6025 46.6596 18.1391V17.2989H48.4342V18.9794H48.4343Z" fill="black"/>
</svg>
