<svg width="63" height="74" viewBox="0 0 63 74" fill="none" xmlns="http://www.w3.org/2000/svg">
<path d="M0.410906 24.429C0.295857 23.8545 0.291884 23.2627 0.398989 22.6536C0.508012 22.0541 0.688857 21.4652 0.941524 20.8867C1.18462 20.3102 1.48326 19.7624 1.83744 19.2433C2.18205 18.7261 2.53338 18.2673 2.89143 17.8669C2.90097 17.7156 2.90668 17.5701 2.90856 17.4303C2.9181 17.279 2.92668 17.1229 2.9343 16.962L2.9228 16.9046C2.827 16.7245 2.7465 16.4967 2.68132 16.2209C2.6238 15.9336 2.58255 15.6531 2.55759 15.3792C2.54028 15.0938 2.54118 14.8496 2.56029 14.6466C2.57939 14.4436 2.62245 14.3354 2.68948 14.322C2.81397 14.297 2.91739 14.3162 2.99976 14.3793C3.0917 14.4406 3.1511 14.5383 3.17794 14.6723C3.24314 14.9979 3.34664 15.3407 3.48845 15.7007C3.63792 16.0492 3.74429 16.3815 3.80757 16.6975L3.84496 16.8842C4.26431 16.5413 4.69228 16.2415 5.12888 15.9847C5.56549 15.728 6.05669 15.545 6.6025 15.4357C6.65037 15.4261 6.70879 15.4194 6.77773 15.4155C6.85434 15.4002 6.92328 15.3963 6.98457 15.404C7.04586 15.4116 7.10045 15.4356 7.14834 15.4758C7.2058 15.5141 7.24221 15.5715 7.25755 15.6481C7.28056 15.763 7.24323 15.8502 7.14557 15.9096C7.05748 15.967 6.97131 16.0092 6.88705 16.036C6.78555 16.0763 6.63427 16.1414 6.43319 16.2315C6.23212 16.3215 6.00998 16.4308 5.76678 16.5591C5.53124 16.676 5.29379 16.8082 5.05442 16.9558C4.81314 17.0937 4.59485 17.247 4.39954 17.4156C4.20423 17.5841 4.04339 17.7508 3.91703 17.9155C3.79066 18.0803 3.72942 18.2469 3.73329 18.4155C3.74294 18.7123 3.7794 19.0187 3.84268 19.3347C3.91745 19.6584 3.97115 19.9763 4.00378 20.2884C4.04791 20.6083 4.0566 20.9252 4.02986 21.2393C4.01462 21.5611 3.92085 21.8637 3.74855 22.1472L2.31558 24.4659C2.27155 24.5444 2.21028 24.6364 2.13179 24.7417C2.04371 24.849 1.94893 24.9477 1.84745 25.0377C1.74597 25.1277 1.63778 25.2092 1.52288 25.282C1.39841 25.3567 1.27872 25.4055 1.16382 25.4286C1.03934 25.4535 0.929206 25.4257 0.833426 25.3453C0.739565 25.2745 0.665807 25.1797 0.612153 25.061C0.560417 24.9518 0.517297 24.836 0.482794 24.7134C0.448291 24.5908 0.424328 24.496 0.410906 24.429ZM1.11183 24.2737C1.12716 24.3005 1.14919 24.3359 1.17793 24.38C1.19709 24.4259 1.21242 24.4528 1.22391 24.4604C1.22391 24.4604 1.23445 24.4633 1.25552 24.469C1.30339 24.4594 1.35988 24.4182 1.42498 24.3455C1.492 24.2822 1.55806 24.2142 1.62316 24.1414C1.67868 24.0706 1.72942 24.0006 1.77536 23.9317C1.82131 23.8627 1.84429 23.8282 1.84429 23.8282C2.0836 23.4815 2.30186 23.154 2.49905 22.8456C2.68858 22.5487 2.84268 22.2489 2.96135 21.9463C3.07045 21.6456 3.14027 21.3229 3.17084 20.9781C3.19182 20.6353 3.15821 20.2436 3.07001 19.8032L2.92907 19.0994C2.65909 19.3427 2.40253 19.6779 2.1594 20.105C1.90862 20.5437 1.69327 21.0101 1.51336 21.5042C1.33345 21.9984 1.20237 22.4878 1.12014 22.9723C1.0379 23.4569 1.03321 23.8811 1.10608 24.245L1.11183 24.2737ZM2.43352 13.1183C2.40859 12.9938 2.43442 12.8741 2.511 12.7592C2.58758 12.6443 2.68811 12.5744 2.81259 12.5494C2.90834 12.5302 3.00506 12.5408 3.10275 12.581C3.20043 12.6212 3.25886 12.6891 3.27804 12.7849C3.30297 12.9094 3.26948 13.0406 3.17758 13.1785C3.09526 13.3145 2.99186 13.3949 2.86738 13.4199C2.75247 13.4429 2.65384 13.4228 2.57147 13.3596C2.49868 13.2945 2.45269 13.2141 2.43352 13.1183Z" fill="#0075FF"/>
<path d="M6.49043 15.3237C6.49808 15.2624 6.50667 15.1561 6.51621 15.0048C6.53341 14.842 6.5439 14.6706 6.54769 14.4905C6.56105 14.3086 6.56675 14.1381 6.5648 13.9792C6.57051 13.8087 6.57718 13.6929 6.58483 13.6316C6.59626 13.3902 6.61344 13.1279 6.63635 12.8444C6.66884 12.559 6.73389 12.2871 6.8315 12.0285C6.92912 11.7699 7.07366 11.5468 7.26514 11.359C7.46427 11.1598 7.73141 11.0266 8.06655 10.9595C8.19103 10.9346 8.2868 10.9652 8.35385 11.0514C8.42856 11.126 8.49561 11.2122 8.55501 11.3099C8.56268 11.3482 8.57706 11.42 8.59815 11.5253C8.6269 11.6192 8.64511 11.6852 8.65278 11.7235C8.73524 12.1353 8.76501 12.5078 8.74211 12.841C8.72878 13.1724 8.66278 13.4893 8.54411 13.792C8.43502 14.0927 8.28475 14.3867 8.0933 14.674C7.89993 14.9518 7.67592 15.2506 7.42128 15.5705C7.41745 15.6011 7.41268 15.6519 7.40695 15.7228C7.40122 15.7936 7.40123 15.8434 7.40698 15.8721L7.41274 15.9009C7.44725 16.0732 7.50378 16.2063 7.58233 16.3002C7.66087 16.394 7.75473 16.4648 7.86391 16.5127C7.98075 16.549 8.10332 16.5643 8.23164 16.5585C8.36762 16.5413 8.51221 16.5173 8.66542 16.4866C9.11547 16.3965 9.5339 16.248 9.92072 16.041C10.3075 15.8341 10.6455 15.5573 10.9346 15.2106C10.9729 15.1531 11.0169 15.0746 11.0667 14.975C11.1241 14.8639 11.1816 14.7528 11.239 14.6417C11.2964 14.5306 11.3615 14.4329 11.4343 14.3486C11.5051 14.2547 11.5884 14.1982 11.6842 14.179C11.7799 14.1599 11.845 14.1867 11.8795 14.2594C11.914 14.3322 11.9389 14.4069 11.9543 14.4835C11.9965 14.6942 11.9697 14.9087 11.874 15.127C11.786 15.3339 11.6519 15.535 11.472 15.7304C11.2996 15.9143 11.0909 16.0906 10.8458 16.2592C10.6103 16.4258 10.3709 16.5734 10.1277 16.7017C9.88452 16.8301 9.64706 16.9374 9.41534 17.0237C9.1932 17.108 9.00074 17.1664 8.83795 17.199C8.33045 17.3007 7.88804 17.3046 7.51073 17.2108C7.14107 17.1056 6.84318 16.8117 6.61708 16.3291L6.49043 15.3237ZM7.97776 12.0828C7.82077 12.2935 7.6992 12.4822 7.61305 12.6488C7.53457 12.804 7.47715 12.9649 7.4408 13.1315C7.41211 13.2866 7.39108 13.4552 7.37772 13.6371C7.37393 13.8171 7.37111 14.0269 7.36925 14.2663C7.52243 14.0862 7.64208 13.9128 7.72823 13.7462C7.82395 13.5776 7.89477 13.4091 7.94069 13.2405C7.98662 13.072 8.01147 12.8977 8.01526 12.7177C8.01713 12.5281 8.00463 12.3164 7.97776 12.0828Z" fill="#0075FF"/>
<path d="M21.9166 12.3093C21.8783 12.3667 21.8037 12.4664 21.6926 12.6081C21.5816 12.7499 21.4629 12.9031 21.3365 13.0678C21.2178 13.2211 21.1029 13.3686 20.9919 13.5103C20.8789 13.6425 20.7975 13.7335 20.7477 13.7833C20.7305 13.7967 20.6798 13.8417 20.5955 13.9184C20.5189 13.9835 20.4308 14.0659 20.3313 14.1655C20.2298 14.2555 20.1235 14.3465 20.0125 14.4385C19.9091 14.5189 19.8277 14.585 19.7683 14.6368C19.6649 14.7172 19.5922 14.7766 19.55 14.8149C19.506 14.8437 19.4361 14.8676 19.3403 14.8868C19.1871 14.9175 19.0148 14.9022 18.8232 14.841C18.6393 14.7682 18.5292 14.6409 18.4928 14.4589L18.1821 12.9077L18.1732 11.8189C18.198 11.3957 18.2525 11.0461 18.3367 10.7703C18.419 10.4849 18.5444 10.2407 18.7129 10.0377C18.8795 9.82504 19.093 9.64783 19.3534 9.50604C19.6234 9.36234 19.9423 9.21384 20.3099 9.06053C20.3272 9.04712 20.3846 9.01072 20.4823 8.95132C20.5799 8.89193 20.6374 8.85553 20.6546 8.84212L20.8557 8.80185C21.0089 8.77117 21.1497 8.77784 21.278 8.82186C21.4159 8.86396 21.5529 8.92617 21.6889 9.00849L21.7915 5.79094C21.7513 5.68944 21.7225 5.54581 21.7052 5.36004C21.686 5.16469 21.6812 4.96647 21.6907 4.76537C21.7098 4.56236 21.7491 4.38519 21.8084 4.23388C21.8677 4.08256 21.9548 3.9954 22.0698 3.97239C22.2134 3.94363 22.334 3.97424 22.4317 4.06423C22.539 4.15231 22.5946 4.28061 22.5985 4.44915L22.7634 9.30126C22.6735 9.74752 22.6266 10.1852 22.6229 10.6142C22.6288 11.0412 22.6758 11.475 22.764 11.9155C22.8043 12.1166 22.8589 12.3148 22.9279 12.5101C22.9969 12.7055 23.086 12.8769 23.1952 13.0243C23.314 13.1698 23.4557 13.2809 23.6204 13.3574C23.7832 13.4244 23.9796 13.4349 24.2094 13.3889C24.7169 13.2873 25.2014 13.0956 25.6629 12.814C26.1224 12.5228 26.5111 12.176 26.829 11.7738C26.8481 11.7699 26.8625 11.767 26.8721 11.7651C26.8797 11.7536 26.8931 11.746 26.9123 11.7421C26.9889 11.7268 27.0607 11.7373 27.1277 11.7737C27.1316 11.7928 27.1373 11.8216 27.145 11.8599C27.1622 11.8963 27.1728 11.924 27.1766 11.9432C27.2073 12.0964 27.1738 12.2525 27.0762 12.4115C26.9785 12.5704 26.8407 12.7275 26.6626 12.8827C26.4941 13.036 26.2988 13.1796 26.0767 13.3138C25.8641 13.446 25.6448 13.5695 25.4189 13.6845C25.2025 13.7976 24.9966 13.8886 24.8013 13.9576C24.606 14.0266 24.4508 14.0726 24.3359 14.0956C24.0008 14.1627 23.7078 14.1666 23.4569 14.1073C23.2136 14.0365 22.9953 13.9159 22.8018 13.7455C22.6179 13.5731 22.4617 13.3654 22.3334 13.1222C22.2031 12.8694 22.0881 12.5936 21.9884 12.2949L21.9166 12.3093ZM19.0036 12.31C19.0151 12.3674 19.0247 12.4651 19.0324 12.603C19.0497 12.739 19.065 12.8903 19.0785 13.0569C19.0996 13.212 19.1149 13.3633 19.1245 13.5108C19.1418 13.6467 19.1524 13.7492 19.1562 13.8182C19.1601 13.8373 19.1649 13.8861 19.1706 13.9647C19.186 14.0413 19.1955 14.0891 19.1994 14.1083C19.3334 14.0815 19.4953 13.9943 19.6848 13.8468C19.8725 13.6897 20.064 13.5019 20.2592 13.2836C20.4526 13.0556 20.647 12.8075 20.8422 12.5394C21.0356 12.2616 21.2012 11.9944 21.3391 11.7377C21.4865 11.4791 21.6013 11.2321 21.6836 10.9965C21.764 10.7513 21.7888 10.5521 21.7582 10.3989C21.7486 10.351 21.6968 10.2917 21.603 10.2208C21.5187 10.1481 21.421 10.083 21.3099 10.0256C21.2084 9.9662 21.104 9.91739 20.9967 9.87911C20.8991 9.83892 20.8167 9.82553 20.7497 9.83895C20.5352 9.81219 20.3044 9.87832 20.0574 10.0373C19.818 10.1849 19.6045 10.387 19.4169 10.6437C19.2273 10.8908 19.0876 11.1628 18.9977 11.4596C18.9077 11.7565 18.9097 12.04 19.0036 12.31Z" fill="#0075FF"/>
<path d="M26.599 11.2969C26.6067 11.2356 26.6153 11.1293 26.6248 10.978C26.642 10.8152 26.6525 10.6438 26.6563 10.4638C26.6697 10.2819 26.6754 10.1114 26.6734 9.95245C26.6791 9.78199 26.6858 9.66612 26.6934 9.60483C26.7049 9.36352 26.722 9.10113 26.745 8.81767C26.7774 8.5323 26.8425 8.26033 26.9401 8.00175C27.0377 7.74318 27.1823 7.52002 27.3737 7.33229C27.5729 7.13306 27.84 6.99989 28.1751 6.93278C28.2996 6.90785 28.3954 6.93847 28.4625 7.02464C28.5372 7.09931 28.6042 7.18548 28.6636 7.28314C28.6713 7.32144 28.6857 7.39326 28.7068 7.49859C28.7355 7.59243 28.7537 7.6585 28.7614 7.6968C28.8438 8.10855 28.8736 8.48105 28.8507 8.8143C28.8374 9.14563 28.7714 9.46261 28.6527 9.76524C28.5436 10.066 28.3933 10.36 28.2019 10.6473C28.0085 10.925 27.7845 11.2239 27.5299 11.5438C27.5261 11.5744 27.5213 11.6252 27.5155 11.696C27.5098 11.7669 27.5098 11.8167 27.5156 11.8454L27.5213 11.8741C27.5559 12.0465 27.6124 12.1796 27.6909 12.2734C27.7695 12.3672 27.8633 12.4381 27.9725 12.4859C28.0893 12.5223 28.2119 12.5376 28.3402 12.5318C28.4762 12.5145 28.6208 12.4906 28.774 12.4599C29.2241 12.3698 29.6425 12.2212 30.0293 12.0143C30.4161 11.8074 30.7541 11.5305 31.0432 11.1838C31.0815 11.1264 31.1255 11.0478 31.1753 10.9482C31.2327 10.8371 31.2902 10.726 31.3476 10.6149C31.405 10.5038 31.4701 10.4062 31.5429 10.3219C31.6137 10.228 31.697 10.1715 31.7928 10.1523C31.8885 10.1331 31.9536 10.1599 31.9881 10.2327C32.0226 10.3055 32.0475 10.3802 32.0629 10.4568C32.1051 10.6674 32.0783 10.8819 31.9826 11.1003C31.8946 11.3072 31.7605 11.5083 31.5806 11.7037C31.4082 11.8876 31.1995 12.0638 30.9544 12.2324C30.7189 12.3991 30.4795 12.5466 30.2363 12.675C29.9931 12.8034 29.7557 12.9107 29.5239 12.9969C29.3018 13.0812 29.1093 13.1397 28.9466 13.1723C28.4391 13.2739 27.9966 13.2779 27.6193 13.1841C27.2497 13.0789 26.9518 12.785 26.7257 12.3024L26.599 11.2969ZM28.0864 8.05606C27.9294 8.26677 27.8078 8.45545 27.7217 8.62209C27.6432 8.77724 27.5858 8.93813 27.5494 9.10476C27.5207 9.2599 27.4997 9.42844 27.4863 9.61039C27.4825 9.79042 27.4797 10.0001 27.4779 10.2395C27.631 10.0595 27.7507 9.88611 27.8368 9.71947C27.9325 9.55091 28.0034 9.38236 28.0493 9.21381C28.0952 9.04526 28.1201 8.87097 28.1239 8.69094C28.1257 8.50134 28.1132 8.28971 28.0864 8.05606Z" fill="#0075FF"/>
<path d="M32.5455 10.3302C32.4766 10.3839 32.4 10.4241 32.3157 10.451C32.2295 10.4682 32.1433 10.4855 32.0572 10.5027C31.971 10.52 31.8858 10.542 31.8015 10.5689C31.7153 10.5861 31.633 10.6225 31.5545 10.6781C31.3955 10.7298 31.2883 10.7414 31.2327 10.7126C31.1752 10.6744 31.1484 10.615 31.1522 10.5345C31.156 10.4541 31.1914 10.3574 31.2585 10.2444C31.3255 10.1314 31.4097 10.0298 31.5112 9.9398C31.6031 9.85167 31.7084 9.78079 31.8271 9.72713C31.9554 9.67156 32.0761 9.65238 32.1891 9.66959C32.1067 9.50682 32.0818 9.35744 32.1143 9.22145C32.1468 9.08546 32.2493 9.00021 32.4216 8.9657C32.5078 8.94844 32.5863 8.94268 32.6572 8.94841C32.7357 8.94264 32.8008 8.96944 32.8526 9.0288C32.9789 8.91386 33.1417 8.73187 33.3408 8.48285C33.538 8.22425 33.74 7.96469 33.9468 7.70418C34.1612 7.43217 34.3575 7.19368 34.5355 6.98871C34.7117 6.77417 34.8381 6.65922 34.9147 6.64388C34.9434 6.63813 34.9826 6.63525 35.0324 6.63524C35.0803 6.62565 35.1301 6.62564 35.1818 6.6352C35.2431 6.64285 35.291 6.65816 35.3255 6.68113C35.3676 6.69261 35.3935 6.72229 35.4031 6.77017L35.5267 7.38779C35.5134 7.66933 35.4972 7.9365 35.4781 8.18931C35.4667 8.43063 35.46 8.67099 35.4582 8.91039C35.464 9.1383 35.4803 9.36907 35.5072 9.60272C35.534 9.83637 35.5734 10.0825 35.6251 10.341C35.7783 10.3103 35.9536 10.2404 36.1508 10.1312C36.3576 10.02 36.5615 9.89454 36.7626 9.75468C36.9637 9.61482 37.1504 9.47784 37.3227 9.34373C37.4931 9.20005 37.6291 9.08319 37.7306 8.99316C37.7478 8.97974 37.7842 8.9376 37.8397 8.86673C37.8952 8.79585 37.9555 8.72402 38.0206 8.65122C38.0838 8.56886 38.1441 8.49702 38.2016 8.43572C38.2667 8.36293 38.3069 8.31504 38.3222 8.29205C38.3375 8.26907 38.3806 8.23554 38.4514 8.19147C38.5204 8.13783 38.5587 8.10526 38.5663 8.09377C38.6027 8.07653 38.6391 8.08418 38.6755 8.11673C38.7196 8.13778 38.7607 8.16937 38.7991 8.2115C38.8354 8.24405 38.8632 8.2833 38.8824 8.32926C38.9092 8.36373 38.9236 8.38575 38.9255 8.39533C38.9447 8.49108 38.9255 8.59451 38.8681 8.7056C38.8107 8.8167 38.7379 8.92588 38.6499 9.03315C38.5599 9.13085 38.4651 9.22951 38.3655 9.32912C38.2736 9.41724 38.2047 9.49578 38.1587 9.56474C38.0898 9.61838 37.9682 9.70747 37.794 9.832C37.6293 9.95461 37.4512 10.0849 37.2597 10.2228C37.0682 10.3608 36.8854 10.492 36.7111 10.6165C36.5464 10.7391 36.4296 10.8273 36.3607 10.8809C36.3435 10.8943 36.3032 10.9173 36.24 10.9499C36.1749 10.9729 36.107 11.0064 36.0361 11.0505C35.9653 11.0945 35.8934 11.1338 35.8207 11.1683C35.7556 11.1913 35.7144 11.2095 35.6972 11.2229C35.6167 11.2689 35.5593 11.3302 35.5248 11.4068C35.5 11.4815 35.4703 11.5572 35.4358 11.6338C35.4109 11.7085 35.3698 11.7765 35.3123 11.8378C35.2645 11.8972 35.1716 11.9307 35.0337 11.9384C35.0222 11.9308 34.9753 11.9202 34.8929 11.9068C34.8182 11.882 34.7694 11.8619 34.7464 11.8466C34.484 11.7298 34.257 11.6159 34.0655 11.5049C33.8739 11.3938 33.6977 11.2847 33.5368 11.1775C33.374 11.0607 33.214 10.9334 33.057 10.7955C32.9094 10.6557 32.739 10.5007 32.5455 10.3302ZM33.3353 9.57451C33.4311 9.70472 33.5212 9.8311 33.6055 9.95366C33.6993 10.0743 33.8018 10.1882 33.9129 10.2954C34.0221 10.3931 34.138 10.4745 34.2606 10.5396C34.3928 10.6027 34.5421 10.6276 34.7088 10.6141C34.6992 10.4667 34.6886 10.2895 34.677 10.0827C34.6655 9.87584 34.6568 9.65847 34.651 9.43056C34.6452 9.20265 34.6452 8.97857 34.6509 8.75832C34.6642 8.52658 34.6881 8.32261 34.7225 8.1464L34.5789 8.17516C34.4468 8.31117 34.3243 8.44527 34.2113 8.57744C34.106 8.69813 34.0007 8.81881 33.8954 8.93949C33.7881 9.0506 33.7029 9.14734 33.6398 9.2297C33.6321 9.2412 33.6206 9.25844 33.6053 9.28142C33.59 9.30441 33.5775 9.31686 33.568 9.31878C33.5622 9.33985 33.5258 9.38199 33.4588 9.44521C33.3918 9.50843 33.3506 9.55153 33.3353 9.57451ZM34.6794 7.93095C34.6507 7.93671 34.6411 7.96352 34.6507 8.0114C34.6584 8.0497 34.6766 8.06597 34.7053 8.06022C34.7436 8.05255 34.7589 8.02957 34.7512 7.99126C34.7416 7.94339 34.7177 7.92328 34.6794 7.93095Z" fill="#0075FF"/>
<path d="M39.2244 8.9928C39.1555 9.04644 39.0789 9.08668 38.9946 9.11351C38.9084 9.13077 38.8223 9.14802 38.7361 9.16528C38.6499 9.18254 38.5647 9.20458 38.4804 9.23142C38.3942 9.24868 38.3119 9.28508 38.2334 9.34064C38.0744 9.39239 37.9672 9.40391 37.9116 9.37519C37.8542 9.3369 37.8273 9.27754 37.8312 9.1971C37.835 9.11666 37.8704 9.01993 37.9374 8.90692C38.0044 8.79391 38.0886 8.69238 38.1901 8.60235C38.282 8.51422 38.3873 8.44334 38.5061 8.38968C38.6344 8.33411 38.755 8.31493 38.868 8.33214C38.7856 8.16937 38.7607 8.01999 38.7932 7.884C38.8258 7.74802 38.9282 7.66276 39.1006 7.62825C39.1867 7.61099 39.2653 7.60523 39.3361 7.61096C39.4146 7.60519 39.4798 7.63199 39.5315 7.69135C39.6579 7.57641 39.8206 7.39442 40.0197 7.1454C40.2169 6.8868 40.4189 6.62724 40.6257 6.36673C40.8401 6.09472 41.0364 5.85623 41.2145 5.65126C41.3906 5.43672 41.517 5.32177 41.5936 5.30643C41.6223 5.30068 41.6616 5.2978 41.7114 5.29779C41.7592 5.2882 41.809 5.28819 41.8608 5.29775C41.922 5.3054 41.9699 5.32071 42.0044 5.34368C42.0465 5.35516 42.0724 5.38484 42.082 5.43272L42.2057 6.05034C42.1923 6.33188 42.1761 6.59905 42.157 6.85186C42.1456 7.09318 42.1389 7.33354 42.1371 7.57294C42.1429 7.80085 42.1592 8.03162 42.1861 8.26527C42.213 8.49892 42.2523 8.74501 42.3041 9.00355C42.4573 8.97287 42.6325 8.90292 42.8297 8.79371C43.0365 8.68258 43.2405 8.55709 43.4415 8.41723C43.6426 8.27737 43.8293 8.14039 44.0016 8.00628C44.1721 7.8626 44.308 7.74574 44.4095 7.65571C44.4267 7.64229 44.4631 7.60015 44.5186 7.52928C44.5741 7.4584 44.6345 7.38657 44.6996 7.31377C44.7627 7.23141 44.8231 7.15957 44.8805 7.09827C44.9456 7.02548 44.9858 6.97759 45.0011 6.9546C45.0164 6.93162 45.0595 6.89809 45.1304 6.85402C45.1993 6.80038 45.2376 6.76781 45.2453 6.75632C45.2816 6.73907 45.318 6.74673 45.3544 6.77928C45.3985 6.80033 45.4397 6.83192 45.478 6.87405C45.5144 6.9066 45.5422 6.94585 45.5613 6.99181C45.5881 7.02628 45.6025 7.0483 45.6044 7.05788C45.6236 7.15363 45.6045 7.25706 45.547 7.36815C45.4896 7.47925 45.4169 7.58843 45.3288 7.6957C45.2388 7.7934 45.144 7.89206 45.0445 7.99167C44.9525 8.07979 44.8836 8.15833 44.8377 8.22729C44.7687 8.28093 44.6471 8.37002 44.4729 8.49455C44.3082 8.61716 44.1301 8.74743 43.9386 8.88538C43.7472 9.02332 43.5643 9.15455 43.39 9.27908C43.2254 9.40169 43.1086 9.48982 43.0396 9.54346C43.0224 9.55687 42.9822 9.57986 42.919 9.61244C42.8539 9.63543 42.7859 9.66897 42.715 9.71303C42.6442 9.7571 42.5724 9.79638 42.4996 9.83087C42.4345 9.85387 42.3933 9.87207 42.3761 9.88548C42.2957 9.93147 42.2382 9.99277 42.2038 10.0694C42.1789 10.1441 42.1492 10.2197 42.1148 10.2964C42.0899 10.3711 42.0487 10.4391 41.9913 10.5004C41.9434 10.5597 41.8505 10.5933 41.7126 10.601C41.7011 10.5933 41.6542 10.5828 41.5719 10.5694C41.4972 10.5445 41.4483 10.5244 41.4253 10.5091C41.1629 10.3923 40.936 10.2784 40.7444 10.1674C40.5529 10.0564 40.3766 9.94725 40.2157 9.84003C40.0529 9.72325 39.893 9.59592 39.7359 9.45807C39.5884 9.31829 39.4179 9.1632 39.2244 8.9928ZM40.0143 8.23706C40.11 8.36727 40.2001 8.49366 40.2844 8.61621C40.3783 8.73684 40.4808 8.85077 40.5919 8.958C40.701 9.05565 40.8169 9.13701 40.9395 9.2021C41.0717 9.26527 41.2211 9.29013 41.3877 9.27669C41.3781 9.12922 41.3675 8.95206 41.356 8.74523C41.3444 8.53839 41.3358 8.32102 41.33 8.09311C41.3242 7.8652 41.3241 7.64112 41.3298 7.42087C41.3431 7.18913 41.367 6.98516 41.4015 6.80895L41.2578 6.83771C41.1257 6.97372 41.0032 7.10782 40.8902 7.23999C40.7849 7.36068 40.6796 7.48136 40.5743 7.60204C40.4671 7.71315 40.3819 7.80989 40.3187 7.89225C40.311 7.90375 40.2995 7.92099 40.2842 7.94397C40.2689 7.96696 40.2565 7.97941 40.2469 7.98133C40.2411 8.0024 40.2048 8.04454 40.1378 8.10776C40.0707 8.17098 40.0296 8.21408 40.0143 8.23706ZM41.3583 6.5935C41.3296 6.59925 41.32 6.62607 41.3296 6.67395C41.3373 6.71225 41.3555 6.72852 41.3842 6.72277C41.4225 6.7151 41.4378 6.69212 41.4302 6.65381C41.4206 6.60594 41.3966 6.58583 41.3583 6.5935Z" fill="#0075FF"/>
<path d="M45.2022 6.76495C45.2022 6.71515 45.2136 6.62322 45.2366 6.48915C45.2595 6.35508 45.2806 6.21144 45.2997 6.05822C45.3284 5.90308 45.3542 5.75848 45.3771 5.62441C45.4001 5.49034 45.4163 5.39745 45.4259 5.34574C45.4527 5.18102 45.4852 5.06993 45.5235 5.01247C45.5714 4.95308 45.6671 4.90901 45.8107 4.88025C45.964 4.84957 46.075 4.8821 46.144 4.97785C46.213 5.07359 46.2619 5.19328 46.2906 5.33691C46.3405 5.58587 46.3482 5.82336 46.3138 6.04936C46.287 6.26387 46.2516 6.48508 46.2076 6.713C46.1617 6.93134 46.1244 7.16788 46.0958 7.42261C46.0748 7.66584 46.0949 7.94067 46.1563 8.24708C46.164 8.28538 46.1755 8.34284 46.1908 8.41944C46.2042 8.48647 46.2234 8.55733 46.2483 8.63202C46.2713 8.69713 46.3029 8.75553 46.3432 8.80723C46.3815 8.84936 46.4246 8.86563 46.4724 8.85604C46.7214 8.80619 46.9608 8.70845 47.1906 8.56284C47.428 8.40574 47.653 8.23619 47.8656 8.0542C48.0858 7.86071 48.2897 7.66052 48.4773 7.45364C48.6726 7.23526 48.8488 7.04561 49.0058 6.8847C49.0632 6.82339 49.1015 6.76593 49.1206 6.7123C49.1494 6.65675 49.1742 6.60695 49.1953 6.5629C49.2144 6.50927 49.2403 6.46425 49.2728 6.42786C49.313 6.37997 49.381 6.34643 49.4768 6.32726C49.6013 6.30233 49.7076 6.31093 49.7957 6.35304C49.8914 6.38366 49.9527 6.466 49.9796 6.60006C49.9911 6.65751 49.9968 6.71113 49.9969 6.76093C50.0064 6.80881 49.9911 6.85669 49.9509 6.90458C49.9471 6.93522 49.9165 6.98119 49.859 7.04249C49.8112 7.10188 49.7595 7.16701 49.7039 7.23788C49.6465 7.29918 49.5939 7.35952 49.546 7.41891C49.4962 7.46871 49.4579 7.50128 49.4311 7.51661C49.4215 7.51853 49.3957 7.53864 49.3535 7.57696C49.3191 7.60378 49.2971 7.61815 49.2875 7.62006C49.2798 7.63156 49.2683 7.6488 49.253 7.67178C49.2454 7.68328 49.2425 7.69381 49.2444 7.70338C49.074 7.89686 48.8854 8.09896 48.6786 8.30968C48.4795 8.50891 48.2641 8.70144 48.0324 8.88727C47.7988 9.06352 47.5517 9.22254 47.2913 9.36433C47.0405 9.5042 46.781 9.60098 46.5129 9.65467C46.283 9.70069 46.0944 9.67871 45.9469 9.58873C45.8071 9.48726 45.6902 9.35131 45.5963 9.18088C45.5024 9.01045 45.4306 8.82565 45.3807 8.62648C45.3309 8.42731 45.2897 8.24633 45.2571 8.08355L45.2022 6.76495ZM45.1352 2.84935C45.1006 2.67699 45.1111 2.55537 45.1667 2.48449C45.2222 2.41362 45.3361 2.36092 45.5085 2.32641C45.5947 2.30915 45.6847 2.31104 45.7785 2.33209C45.8705 2.34356 45.9289 2.41153 45.9538 2.53601C45.9788 2.6605 45.9395 2.78787 45.8361 2.91812C45.7423 3.04647 45.638 3.12214 45.5231 3.14515C45.4081 3.16816 45.32 3.15094 45.2587 3.0935C45.1955 3.02649 45.1543 2.9451 45.1352 2.84935Z" fill="#0075FF"/>
<path d="M50.6896 8.50455L50.6027 5.5341L50.5222 5.13193L50.4269 3.16409C50.448 3.12003 50.4968 3.09033 50.5734 3.07499C50.6481 3.05008 50.6998 3.03474 50.7285 3.02899C50.8051 3.01365 50.8971 3.02512 51.0043 3.0634C51.1192 3.09018 51.1853 3.14667 51.2026 3.23285L51.3982 4.20955C51.4307 4.17315 51.4862 4.10228 51.5647 3.99692C51.6432 3.89157 51.7256 3.78047 51.8117 3.66362C51.9075 3.54485 51.9946 3.43279 52.0731 3.32744C52.1516 3.22209 52.2013 3.14738 52.2224 3.10333C52.3086 2.98648 52.4167 2.88016 52.547 2.78437C52.6867 2.68666 52.8237 2.62438 52.9577 2.59754C53.2354 2.54193 53.4681 2.58497 53.6558 2.72665C53.8531 2.86641 53.9786 3.07035 54.0323 3.33846C54.0362 3.35761 54.0342 3.37293 54.0266 3.38443C54.0266 3.38443 54.0285 3.394 54.0323 3.41315L54.0438 3.47061L53.9899 6.03603L54.2228 7.19945C54.5197 7.14001 54.8146 7.0212 55.1076 6.84301C55.4082 6.65334 55.6887 6.43781 55.9492 6.19643C56.2096 5.95506 56.446 5.69358 56.6586 5.41199C56.8692 5.12083 57.0482 4.84596 57.1956 4.58737L57.253 4.57586C57.32 4.56244 57.3775 4.57583 57.4254 4.61604C57.4809 4.64476 57.5154 4.69263 57.5289 4.75966C57.571 4.97032 57.5414 5.19536 57.44 5.43479C57.3462 5.66272 57.2074 5.8897 57.0236 6.11574C56.8493 6.33986 56.6349 6.56207 56.3802 6.78238C56.1351 7.00077 55.8852 7.19522 55.6306 7.36574C55.3855 7.53433 55.1403 7.67803 54.8952 7.79683C54.6501 7.91563 54.4366 7.99325 54.2546 8.02968C54.0727 8.06611 53.9224 8.06136 53.8036 8.01543C53.6849 7.96949 53.5862 7.89961 53.5077 7.80578C53.4368 7.70046 53.3783 7.58269 53.3323 7.45247C53.2959 7.32033 53.2624 7.17766 53.2317 7.02445L53.1943 6.83773L53.1965 3.93908L53.1016 3.46509C52.8717 3.51111 52.6621 3.65767 52.4725 3.90478C52.2926 4.14996 52.1404 4.43441 52.016 4.75811C51.9011 5.07989 51.8064 5.40262 51.7318 5.72631C51.6667 6.04807 51.6247 6.31047 51.6056 6.51348C51.5998 6.58435 51.5951 6.70979 51.5913 6.88982C51.5875 7.06985 51.5856 7.25946 51.5857 7.45864C51.5953 7.6559 51.603 7.84359 51.6088 8.0217C51.6146 8.19981 51.6204 8.32813 51.6261 8.40665C51.6472 8.46218 51.6367 8.50911 51.5946 8.54742C51.562 8.58382 51.5189 8.61735 51.4653 8.648C51.4098 8.66908 51.3485 8.68633 51.2815 8.69976C51.224 8.71126 51.1761 8.72085 51.1378 8.72852C51.0517 8.74578 50.9626 8.74867 50.8707 8.7372C50.7787 8.72573 50.7213 8.66254 50.6982 8.54764L50.6896 8.50455Z" fill="#0075FF"/>
<path d="M57.0205 5.20506C57.0281 5.14377 57.0367 5.03748 57.0462 4.88618C57.0634 4.72338 57.0739 4.55197 57.0777 4.37194C57.0911 4.18999 57.0968 4.01954 57.0948 3.86058C57.1005 3.69012 57.1072 3.57425 57.1149 3.51296C57.1263 3.27165 57.1435 3.00926 57.1664 2.72581C57.1989 2.44043 57.2639 2.16846 57.3615 1.90988C57.4592 1.65131 57.6037 1.42815 57.7952 1.24042C57.9943 1.04119 58.2614 0.908021 58.5966 0.840909C58.7211 0.815982 58.8168 0.846602 58.8839 0.93277C58.9586 1.00744 59.0257 1.09361 59.085 1.19127C59.0927 1.22958 59.1071 1.30139 59.1282 1.40672C59.1569 1.50056 59.1752 1.56663 59.1828 1.60493C59.2653 2.01668 59.2951 2.38918 59.2721 2.72243C59.2588 3.05376 59.1928 3.37074 59.0742 3.67337C58.9651 3.97408 58.8148 4.2681 58.6233 4.55543C58.43 4.83318 58.206 5.132 57.9513 5.4519C57.9475 5.48254 57.9427 5.5333 57.937 5.60416C57.9313 5.67503 57.9313 5.72482 57.937 5.75355L57.9428 5.78227C57.9773 5.95463 58.0338 6.08773 58.1124 6.18155C58.1909 6.27538 58.2848 6.34622 58.394 6.39407C58.5108 6.43043 58.6334 6.44572 58.7617 6.43995C58.8977 6.42268 59.0422 6.3987 59.1955 6.36802C59.6455 6.2779 60.0639 6.12937 60.4508 5.92244C60.8376 5.71551 61.1755 5.43868 61.4647 5.09196C61.5029 5.03449 61.547 4.95596 61.5968 4.85636C61.6542 4.74526 61.7116 4.63417 61.769 4.52307C61.8265 4.41198 61.8916 4.31429 61.9643 4.23C62.0352 4.13614 62.1185 4.07962 62.2142 4.06045C62.31 4.04127 62.3751 4.06807 62.4096 4.14084C62.4441 4.21361 62.469 4.28829 62.4843 4.3649C62.5265 4.57556 62.4997 4.79007 62.404 5.00842C62.316 5.21528 62.182 5.41641 62.002 5.61181C61.8297 5.79571 61.621 5.97195 61.3759 6.14055C61.1403 6.30723 60.901 6.45476 60.6578 6.58313C60.4146 6.71151 60.1771 6.81882 59.9454 6.90506C59.7232 6.98938 59.5308 7.04784 59.368 7.08044C58.8605 7.18206 58.4181 7.186 58.0408 7.09224C57.6711 6.987 57.3732 6.69309 57.1471 6.21051L57.0205 5.20506ZM58.5078 1.96419C58.3508 2.1749 58.2292 2.36358 58.1431 2.53022C58.0646 2.68537 58.0072 2.84626 57.9708 3.01289C57.9421 3.16803 57.9211 3.33657 57.9078 3.51852C57.904 3.69855 57.9011 3.90826 57.8993 4.14766C58.0525 3.9676 58.1721 3.79424 58.2583 3.6276C58.354 3.45904 58.4248 3.29049 58.4707 3.12194C58.5167 2.95339 58.5415 2.7791 58.5453 2.59907C58.5472 2.40947 58.5347 2.19784 58.5078 1.96419Z" fill="#0075FF"/>
<path d="M8.64167 43.6728C8.57274 43.7265 8.49614 43.7667 8.41187 43.7936C8.3257 43.8108 8.23952 43.8281 8.15334 43.8453C8.06716 43.8626 7.98194 43.8846 7.89767 43.9115C7.81149 43.9287 7.72915 43.9651 7.65064 44.0207C7.49169 44.0724 7.38444 44.084 7.32889 44.0552C7.27143 44.017 7.2446 43.9576 7.24841 43.8771C7.25222 43.7967 7.28763 43.7 7.35464 43.587C7.42164 43.474 7.50589 43.3724 7.60737 43.2824C7.69928 43.1943 7.8046 43.1234 7.92333 43.0697C8.05163 43.0142 8.17228 42.995 8.28528 43.0122C8.20289 42.8494 8.17796 42.7 8.21048 42.5641C8.24301 42.4281 8.34545 42.3428 8.51781 42.3083C8.60399 42.291 8.68251 42.2853 8.75338 42.291C8.8319 42.2852 8.89702 42.312 8.94875 42.3714C9.07512 42.2565 9.23787 42.0745 9.43699 41.8254C9.63419 41.5668 9.83619 41.3073 10.043 41.0468C10.2574 40.7748 10.4537 40.5363 10.6317 40.3313C10.8079 40.1168 10.9342 40.0018 11.0108 39.9865C11.0396 39.9807 11.0788 39.9778 11.1286 39.9778C11.1765 39.9682 11.2263 39.9682 11.278 39.9778C11.3393 39.9854 11.3872 40.0008 11.4217 40.0237C11.4638 40.0352 11.4897 40.0649 11.4992 40.1128L11.6229 40.7304C11.6096 41.0119 11.5934 41.2791 11.5743 41.5319C11.5628 41.7732 11.5562 42.0136 11.5543 42.253C11.5601 42.4809 11.5765 42.7117 11.6033 42.9453C11.6302 43.179 11.6695 43.4251 11.7213 43.6836C11.8745 43.6529 12.0497 43.583 12.247 43.4738C12.4538 43.3626 12.6577 43.2371 12.8588 43.0973C13.0599 42.9574 13.2466 42.8204 13.4189 42.6863C13.5893 42.5427 13.7253 42.4258 13.8267 42.3358C13.844 42.3223 13.8804 42.2802 13.9359 42.2093C13.9914 42.1384 14.0517 42.0666 14.1168 41.9938C14.18 41.9115 14.2403 41.8396 14.2977 41.7783C14.3628 41.7055 14.4031 41.6576 14.4184 41.6347C14.4337 41.6117 14.4768 41.5781 14.5476 41.5341C14.6166 41.4804 14.6549 41.4479 14.6625 41.4364C14.6989 41.4191 14.7353 41.4268 14.7717 41.4593C14.8157 41.4804 14.8569 41.512 14.8952 41.5541C14.9316 41.5866 14.9594 41.6259 14.9786 41.6719C15.0054 41.7063 15.0198 41.7284 15.0217 41.7379C15.0409 41.8337 15.0217 41.9371 14.9643 42.0482C14.9069 42.1593 14.8341 42.2685 14.746 42.3758C14.6561 42.4734 14.5613 42.5721 14.4617 42.6717C14.3698 42.7598 14.3009 42.8384 14.2549 42.9073C14.186 42.961 14.0644 43.0501 13.8901 43.1746C13.7255 43.2972 13.5474 43.4275 13.3559 43.5654C13.1644 43.7034 12.9815 43.8346 12.8073 43.9591C12.6426 44.0817 12.5258 44.1699 12.4569 44.2235C12.4396 44.2369 12.3994 44.2599 12.3362 44.2925C12.2711 44.3155 12.2031 44.349 12.1323 44.3931C12.0614 44.4371 11.9896 44.4764 11.9169 44.5109C11.8517 44.5339 11.8106 44.5521 11.7933 44.5655C11.7129 44.6115 11.6555 44.6728 11.621 44.7494C11.5961 44.8241 11.5665 44.8998 11.532 44.9764C11.5071 45.0511 11.466 45.1191 11.4085 45.1804C11.3607 45.2398 11.2678 45.2733 11.1299 45.281C11.1184 45.2734 11.0715 45.2628 10.9891 45.2494C10.9144 45.2246 10.8656 45.2045 10.8426 45.1892C10.5802 45.0724 10.3532 44.9585 10.1617 44.8475C9.97011 44.7364 9.79389 44.6273 9.63299 44.5201C9.47017 44.4033 9.31022 44.276 9.15314 44.1381C9.00564 43.9983 8.83514 43.8433 8.64167 43.6728ZM9.43151 42.9171C9.5273 43.0473 9.61734 43.1737 9.70164 43.2963C9.79551 43.4169 9.898 43.5308 10.0091 43.638C10.1183 43.7357 10.2342 43.8171 10.3568 43.8821C10.4889 43.9453 10.6383 43.9702 10.805 43.9567C10.7953 43.8093 10.7848 43.6321 10.7732 43.4253C10.7617 43.2184 10.753 43.0011 10.7472 42.7732C10.7414 42.5452 10.7414 42.3212 10.7471 42.1009C10.7604 41.8692 10.7843 41.6652 10.8187 41.489L10.6751 41.5178C10.543 41.6538 10.4204 41.7879 10.3075 41.92C10.2022 42.0407 10.0969 42.1614 9.99155 42.2821C9.88433 42.3932 9.79912 42.4899 9.73594 42.5723C9.72828 42.5838 9.7168 42.601 9.70148 42.624C9.68616 42.647 9.67372 42.6595 9.66414 42.6614C9.6584 42.6824 9.62202 42.7246 9.55501 42.7878C9.48799 42.851 9.44682 42.8941 9.43151 42.9171ZM10.7756 41.2736C10.7469 41.2793 10.7373 41.3061 10.7469 41.354C10.7545 41.3923 10.7727 41.4086 10.8015 41.4028C10.8398 41.3952 10.8551 41.3722 10.8474 41.3339C10.8378 41.286 10.8139 41.2659 10.7756 41.2736Z" fill="#0075FF"/>
<path d="M14.6686 42.959C14.6801 42.8172 14.6762 42.6736 14.657 42.528C14.6474 42.3806 14.6359 42.2235 14.6224 42.0569C14.6186 41.8884 14.6252 41.6978 14.6424 41.4852C14.6673 41.2611 14.7208 41.0064 14.8031 40.721C14.8854 40.4356 15.0031 40.1033 15.1562 39.7241C15.317 39.3333 15.5352 38.8813 15.8109 38.368C15.8377 38.3028 15.876 38.2454 15.9258 38.1956C15.9736 38.1362 16.0311 38.0998 16.0981 38.0863C16.213 38.0633 16.3231 38.0911 16.4285 38.1696C16.5319 38.2385 16.5942 38.3256 16.6153 38.431C16.6172 38.4405 16.6143 38.476 16.6067 38.5373C16.6067 38.587 16.6038 38.6225 16.5981 38.6435C16.5369 38.8849 16.4756 39.1013 16.4144 39.2928C16.3532 39.4844 16.2862 39.6721 16.2134 39.856C16.1388 40.0303 16.0517 40.217 15.9522 40.4162C15.8622 40.6135 15.7531 40.8395 15.6248 41.0943C15.5674 41.4046 15.5206 41.6928 15.4843 41.959C15.4479 42.2252 15.4604 42.5116 15.5218 42.818C15.5525 42.9712 15.5822 43.0947 15.611 43.1885C15.6493 43.2805 15.723 43.4001 15.8322 43.5476L15.9902 43.516C16.2679 43.4603 16.5619 43.2869 16.8721 42.9958C17.1899 42.6931 17.4905 42.354 17.7739 41.9786C18.0649 41.5916 18.3214 41.2066 18.5435 40.8235C18.7656 40.4404 18.9235 40.1349 19.0173 39.907C19.0326 39.884 19.0479 39.8361 19.0632 39.7633C19.0862 39.6791 19.1005 39.6264 19.1063 39.6053C19.1139 39.544 19.1283 39.4416 19.1493 39.2979C19.1684 39.1447 19.1866 38.9867 19.2038 38.8239C19.2305 38.6592 19.2545 38.505 19.2755 38.3614C19.2946 38.2082 19.308 38.1009 19.3156 38.0396C19.3175 37.9496 19.3462 37.894 19.4018 37.873C19.4573 37.8519 19.5138 37.8356 19.5713 37.8241C19.7436 37.7896 19.8614 37.8058 19.9246 37.8728C19.9859 37.9303 20.0329 38.0404 20.0655 38.2032L20.1144 38.4474C20.0704 38.7251 20.0321 38.9817 19.9996 39.2173C19.9767 39.451 19.9528 39.6798 19.928 39.9039C19.9127 40.1261 19.9118 40.3454 19.9253 40.5618C19.9387 40.7782 19.9704 41.0109 20.0202 41.2598C20.026 41.2886 20.0346 41.3566 20.0461 41.4638C20.0672 41.5691 20.0941 41.6783 20.1267 41.7913C20.1669 41.8928 20.2158 41.9876 20.2732 42.0757C20.3384 42.1522 20.414 42.1819 20.5002 42.1647C20.73 42.1186 20.9589 42.0429 21.1868 41.9375C21.4223 41.8207 21.655 41.6894 21.8847 41.5438C22.1126 41.3886 22.3242 41.2267 22.5195 41.0582C22.7244 40.8876 22.9149 40.72 23.0911 40.5553C23.1351 40.5265 23.1839 40.4719 23.2376 40.3915C23.2912 40.311 23.3505 40.2344 23.4156 40.1616C23.4788 40.0793 23.5439 40.0065 23.6109 39.9432C23.6779 39.88 23.745 39.8417 23.812 39.8283C24.0035 39.7899 24.1184 39.8665 24.1568 40.058C24.1855 40.2017 24.13 40.3721 23.9903 40.5694C23.8486 40.7571 23.659 40.9545 23.4216 41.1614C23.1937 41.3663 22.9304 41.5685 22.6317 41.7677C22.333 41.967 22.041 42.1499 21.7557 42.3166C21.478 42.4718 21.2262 42.6069 21.0002 42.7219C20.7723 42.8273 20.6057 42.8905 20.5004 42.9116C20.4621 42.9193 20.3903 42.9336 20.2849 42.9547C20.1873 42.9643 20.1193 42.973 20.081 42.9806C19.9201 42.973 19.7831 42.9108 19.6701 42.794C19.5571 42.6772 19.4603 42.5422 19.3799 42.389C19.3071 42.2243 19.2496 42.0615 19.2074 41.9007C19.1633 41.7302 19.1307 41.5923 19.1096 41.487C19.0847 41.5119 19.0512 41.5435 19.0091 41.5818C18.9746 41.6087 18.9555 41.6374 18.9517 41.668C18.8885 41.7504 18.7803 41.8816 18.6271 42.0617C18.4816 42.2303 18.3198 42.417 18.1418 42.622C17.9713 42.8155 17.8086 42.9975 17.6535 43.1679C17.508 43.3365 17.4075 43.4562 17.3519 43.5271C17.1892 43.7091 17.0025 43.871 16.7919 44.0128C16.5812 44.1545 16.3562 44.2494 16.1168 44.2973C15.8679 44.3472 15.6639 44.3482 15.5049 44.3003C15.344 44.2429 15.2071 44.1558 15.0941 44.039C14.9887 43.9107 14.9025 43.7537 14.8354 43.5679C14.7683 43.3822 14.7127 43.1792 14.6686 42.959Z" fill="#0075FF"/>
<path d="M23.4417 41.0378C23.6695 40.783 23.8265 40.5474 23.9126 40.331C24.0084 40.1126 24.0753 39.9 24.1136 39.6932C24.1518 39.4863 24.1738 39.2728 24.1795 39.0525C24.1833 38.8227 24.212 38.568 24.2655 38.2884C24.2138 38.229 24.1783 38.1763 24.1592 38.1304C24.1477 38.0729 24.1343 38.0059 24.1189 37.9293C24.1036 37.8527 24.0949 37.7598 24.093 37.6506C24.1006 37.5396 24.1198 37.4361 24.1504 37.3404C24.1791 37.235 24.2202 37.1421 24.2738 37.0617C24.3274 36.9812 24.4021 36.9314 24.4979 36.9122C24.496 36.9525 24.5573 36.985 24.6818 37.0099C24.8158 37.0328 24.9748 37.0558 25.1587 37.0787C25.3521 37.0997 25.5561 37.1236 25.7706 37.1504C25.9851 37.1771 26.1766 37.2135 26.3452 37.2594C26.5367 37.3206 26.6775 37.402 26.7675 37.5035C26.8652 37.5935 26.9342 37.739 26.9745 37.9401C27.0109 38.122 27.0282 38.3327 27.0263 38.5721C27.0341 38.8096 27.0379 39.0528 27.038 39.3018C27.0457 39.5393 27.0496 39.7825 27.0497 40.0315C27.0574 40.269 27.0804 40.4835 27.1188 40.675L27.1936 41.0484C27.2012 41.1365 27.23 41.1806 27.2798 41.1805C27.3372 41.169 27.3899 41.1585 27.4378 41.1489C27.5527 41.1259 27.6542 41.0856 27.7423 41.0282C27.8303 40.9707 27.9175 40.9084 28.0036 40.8414C28.0994 40.7724 28.1913 40.7092 28.2794 40.6517C28.3655 40.5847 28.4594 40.531 28.5609 40.4908L29.6695 39.462C29.6944 39.3873 29.7317 39.3251 29.7815 39.2753C29.839 39.214 29.8926 39.1584 29.9424 39.1086C30.0266 39.032 30.1252 38.9276 30.2382 38.7954C30.2937 38.7245 30.354 38.6527 30.4191 38.5799L30.85 38.4936C30.8787 38.4879 30.9036 38.5128 30.9247 38.5683C30.9458 38.6238 30.9592 38.666 30.965 38.6947C30.988 38.8096 30.9353 38.9695 30.8071 39.1745C30.6788 39.3794 30.5036 39.5988 30.2815 39.8325C30.0594 40.0662 29.8086 40.3056 29.529 40.5509C29.2475 40.7865 28.968 41.0068 28.6903 41.2118C28.4222 41.4149 28.1676 41.5854 27.9263 41.7233C27.6946 41.8594 27.5117 41.9408 27.3776 41.9677C27.2053 42.0022 27.0578 41.9869 26.9352 41.9218C26.8126 41.8567 26.7053 41.7686 26.6134 41.6576C26.5214 41.5465 26.4467 41.4221 26.3892 41.2842C26.3394 41.1348 26.3001 40.9883 26.2713 40.8447C26.2502 40.7393 26.254 40.5842 26.2827 40.3793C26.3114 40.1743 26.3487 39.9627 26.3946 39.7444C26.4405 39.526 26.4778 39.3144 26.5065 39.1094C26.5352 38.9045 26.538 38.7446 26.515 38.6297C26.5131 38.6201 26.4336 38.5962 26.2765 38.5579C26.1291 38.5177 25.9663 38.4756 25.7881 38.4316C25.6081 38.3781 25.4405 38.3369 25.2854 38.3082C25.1379 38.268 25.0632 38.2432 25.0613 38.2336C24.8947 38.496 24.7933 38.7603 24.7569 39.0265C24.7302 39.2909 24.7006 39.5657 24.6681 39.8511C24.6452 40.1345 24.5792 40.4266 24.4701 40.7273C24.3705 41.0261 24.16 41.3422 23.8383 41.6755C23.8287 41.6774 23.8086 41.6764 23.7779 41.6726C23.7377 41.6707 23.6994 41.6535 23.663 41.6209C23.6151 41.5807 23.573 41.5195 23.5366 41.4371C23.4983 41.3452 23.4666 41.2121 23.4417 41.0378Z" fill="#0075FF"/>
<path d="M37.4462 39.6526C37.427 39.4075 37.4203 39.1748 37.4259 38.9546C37.4297 38.7247 37.4392 38.4987 37.4545 38.2766C37.4698 38.0544 37.4889 37.8265 37.5118 37.5928C37.5424 37.3477 37.572 37.0728 37.6007 36.7683L37.5863 36.6965C37.2474 36.9934 36.9965 37.1582 36.8337 37.1908C36.6805 37.2215 36.5924 37.1794 36.5694 37.0645C36.5368 36.9515 36.554 36.7887 36.621 36.5761C36.6976 36.3616 36.7961 36.1576 36.9167 35.9641C37.0469 35.7687 37.1838 35.6069 37.3274 35.4785C37.4806 35.3482 37.6118 35.307 37.721 35.3549C37.8359 35.3319 37.9307 35.3328 38.0054 35.3577C38.0897 35.3807 38.1826 35.4218 38.2841 35.4812C38.4698 35.2647 38.6479 35.0846 38.8183 34.9409C38.9887 34.7973 39.208 34.6986 39.4761 34.6449C39.8974 34.5605 40.2326 34.593 40.4816 34.7423C40.7402 34.8897 40.9595 35.1645 41.1397 35.5667C41.2698 35.3713 41.3885 35.1931 41.4958 35.0322C41.6011 34.8617 41.7207 34.7133 41.8547 34.5869C41.9964 34.4489 42.1535 34.3378 42.3258 34.2535C42.4962 34.1596 42.6964 34.0897 42.9262 34.0436C43.1177 34.0053 43.3188 34.0397 43.5295 34.1469C43.7402 34.2541 43.9011 34.3862 44.0122 34.5432C44.0199 34.5815 44.0371 34.6677 44.064 34.8018C44.0908 34.9358 44.109 35.0268 44.1186 35.0747C44.1838 35.4003 44.2088 35.7239 44.1936 36.0457C44.1764 36.3579 44.1994 36.6719 44.2627 36.9879C44.2896 37.122 44.3317 37.258 44.3892 37.3958C44.4544 37.5222 44.5731 37.5682 44.7455 37.5336C44.9753 37.4876 45.1716 37.3985 45.3343 37.2663C45.5067 37.1322 45.656 36.9828 45.7824 36.8181C45.9164 36.6418 46.0294 36.4599 46.1213 36.2722C46.2227 36.0825 46.3127 35.9101 46.3912 35.755C46.4773 35.5884 46.5587 35.4476 46.6353 35.3326C46.7118 35.2177 46.798 35.1507 46.8938 35.1315C46.9608 35.1181 47.0384 35.1324 47.1265 35.1745C47.2222 35.2051 47.2778 35.2587 47.2931 35.3354C47.295 35.3449 47.2931 35.3602 47.2874 35.3813C47.2912 35.4005 47.2941 35.4148 47.296 35.4244C47.2597 35.7404 47.1774 36.0507 47.0492 36.3553C46.9209 36.6598 46.7582 36.9414 46.561 37.2C46.3619 37.449 46.1264 37.6655 45.8545 37.8494C45.5902 38.0218 45.2953 38.1406 44.9697 38.2058C44.6633 38.2672 44.3971 38.2807 44.1711 38.2462C43.9432 38.2022 43.742 38.0433 43.5677 37.7695C43.5619 37.7408 43.5447 37.6795 43.5159 37.5857C43.4948 37.4803 43.4824 37.4181 43.4786 37.3989C43.4057 37.0351 43.3692 36.6788 43.3691 36.3303C43.3786 35.9798 43.3489 35.6322 43.2798 35.2875C43.2741 35.2587 43.2568 35.1975 43.2281 35.1036C43.2089 35.0079 43.1964 34.9456 43.1907 34.9169C43.1428 34.8767 43.0758 34.8652 42.9896 34.8825C42.913 34.8978 42.8412 34.9122 42.7741 34.9256C42.573 34.9659 42.3959 35.0761 42.2427 35.2561C42.0896 35.4362 41.9584 35.6517 41.8493 35.9026C41.7402 36.1535 41.6512 36.4303 41.5823 36.7329C41.5211 37.024 41.4752 37.3171 41.4447 37.612C41.4122 37.8974 41.3912 38.1655 41.3817 38.4164C41.3798 38.6558 41.3894 38.8531 41.4105 39.0082L41.2813 39.1835L40.7929 39.2813C40.7068 39.2985 40.6503 39.265 40.6234 39.1808C40.6042 39.085 40.5899 39.0132 40.5803 38.9653C40.5343 38.7355 40.5026 38.5028 40.4853 38.2672C40.4757 38.0202 40.467 37.7779 40.4593 37.5404C40.4592 37.2914 40.4544 37.0434 40.4447 36.7964C40.4351 36.5493 40.4121 36.3099 40.3756 36.0782C40.3507 36.0035 40.3248 35.924 40.298 35.8398C40.2692 35.7459 40.2328 35.6636 40.1888 35.5927C40.1447 35.5219 40.0892 35.4683 40.0221 35.4319C39.9532 35.3859 39.866 35.3735 39.7607 35.3946C39.6075 35.4253 39.4648 35.4837 39.3327 35.57C39.2005 35.6562 39.0818 35.7596 38.9765 35.8803C38.8789 35.9895 38.7956 36.1207 38.7267 36.2739C38.6654 36.4157 38.631 36.567 38.6234 36.7279L38.3196 39.6869L38.2191 39.8564C38.2191 39.8564 38.1903 39.8622 38.1329 39.8737C38.0773 39.8948 38.0352 39.9082 38.0065 39.9139C37.9012 39.935 37.7891 39.9475 37.6704 39.9514C37.5593 39.9437 37.4884 39.8633 37.4577 39.7101L37.4462 39.6526Z" fill="#0075FF"/>
<path d="M47.3396 37.5819C47.3339 37.5531 47.3195 37.4813 47.2965 37.3664C47.2735 37.2515 47.2581 37.1749 47.2505 37.1366C46.9726 36.5947 46.8356 36.0345 46.8393 35.4561C46.8525 34.8758 46.9683 34.3347 47.1865 33.8329C47.4123 33.3196 47.7349 32.8666 48.1543 32.4738C48.5813 32.0696 49.0753 31.7765 49.6364 31.5944L49.895 31.5426C50.1056 31.5005 50.2876 31.5138 50.4408 31.5827C50.6017 31.6401 50.7348 31.733 50.8402 31.8613C50.9551 31.9877 51.0452 32.1389 51.1104 32.3151C51.1851 32.4894 51.2407 32.6675 51.2771 32.8494C51.327 33.0984 51.3471 33.3483 51.3376 33.5992C51.3358 33.8386 51.3253 34.0847 51.3062 34.3375C51.2967 34.5884 51.2872 34.8393 51.2776 35.0902C51.2758 35.3296 51.3007 35.5786 51.3525 35.8371L51.3698 35.9233C51.3832 35.9405 51.4043 35.9961 51.433 36.0899C51.4694 36.1722 51.4943 36.222 51.5077 36.2393C51.5269 36.2354 51.5757 36.2306 51.6542 36.2249C51.7308 36.2095 51.7787 36.1999 51.7979 36.1961C51.8936 36.1769 51.9846 36.1587 52.0708 36.1415C52.1646 36.1127 52.2556 36.0696 52.3437 36.0121L54.8196 34.2017C54.8292 34.1998 54.8435 34.1969 54.8627 34.193C54.8895 34.1777 54.9077 34.1691 54.9172 34.1672C55.013 34.148 55.0954 34.1614 55.1643 34.2073C55.2429 34.2514 55.2917 34.3213 55.3109 34.417C55.3205 34.4649 55.3253 34.5137 55.3253 34.5635C55.3329 34.6018 55.3167 34.6449 55.2765 34.6928C55.219 34.7541 55.108 34.8461 54.9433 34.9687C54.7882 35.0894 54.6206 35.2225 54.4407 35.3681C54.2607 35.5137 54.0893 35.6526 53.9265 35.7848C53.7733 35.9151 53.6613 36.0022 53.5905 36.0463C53.4717 36.1497 53.3377 36.2513 53.1883 36.3509C53.0371 36.441 52.881 36.532 52.7201 36.6239C52.5593 36.7159 52.3965 36.7983 52.2318 36.8711C52.0748 36.9324 51.9293 36.9765 51.7952 37.0034C51.5845 37.0456 51.4055 37.0466 51.258 37.0064C51.1086 36.9566 50.9889 36.881 50.8988 36.7795C50.8069 36.6684 50.7302 36.5344 50.6689 36.3774C50.6152 36.2088 50.5798 36.0317 50.5625 35.8459C50.4017 36.0375 50.2284 36.2415 50.0427 36.458C49.8569 36.6744 49.6588 36.8784 49.4481 37.07C49.2375 37.2616 49.0183 37.435 48.7904 37.5901C48.5625 37.7453 48.3193 37.8488 48.0608 37.9006C47.9171 37.9293 47.7812 37.9217 47.6528 37.8777C47.5226 37.8241 47.4182 37.7255 47.3396 37.5819ZM48.0548 37.1249C48.2751 37.0808 48.5068 36.9697 48.75 36.7915C48.9913 36.6038 49.222 36.3882 49.4422 36.145C49.6624 35.9017 49.8567 35.6536 50.0252 35.4008C50.1917 35.1384 50.3152 34.9095 50.3956 34.7141C50.3477 34.4249 50.3313 34.1443 50.3466 33.8724C50.3695 33.5889 50.3531 33.3083 50.2975 33.0307C50.2937 33.0115 50.2831 32.9837 50.2659 32.9473C50.2582 32.909 50.2525 32.8803 50.2486 32.8612C50.1031 32.7808 49.9853 32.7396 49.8953 32.7377C49.8052 32.7358 49.6884 32.7493 49.5448 32.778C49.5256 32.7819 49.4825 32.7905 49.4155 32.8039C49.3581 32.8154 49.3207 32.8279 49.3035 32.8413C49.2556 32.9007 49.1781 33.0108 49.0709 33.1717C48.9617 33.323 48.8459 33.4906 48.7234 33.6745C48.6104 33.8565 48.5003 34.0279 48.3931 34.1888C48.2955 34.3478 48.2275 34.4561 48.1892 34.5135C48.1797 34.5154 48.1644 34.5384 48.1433 34.5825C48.1203 34.617 48.0945 34.662 48.0658 34.7175C48.0466 34.7711 48.0275 34.8248 48.0083 34.8784C47.9969 34.9205 47.9892 34.9569 47.9854 34.9876L47.9772 36.7371L48.0548 37.1249Z" fill="#0075FF"/>
<path d="M13.7202 71.7197L13.7542 69.6513C13.7292 69.3276 13.7196 69.0059 13.7252 68.686C13.7386 68.3547 13.7691 68.0597 13.8169 67.8012C13.8743 67.5407 13.9452 67.3223 14.0294 67.1461C14.1136 66.9699 14.218 66.8693 14.3424 66.8444C14.4861 66.8156 14.6039 66.8568 14.6958 66.9678C14.7859 67.0693 14.8433 67.1823 14.8683 67.3068L14.9028 67.4792L14.556 70.8203C14.5388 71.0329 14.5312 71.2187 14.5331 71.3776C14.5447 71.5347 14.5696 71.7089 14.608 71.9005C14.6137 71.9292 14.6166 71.9684 14.6166 72.0182C14.6262 72.0661 14.6406 72.113 14.6597 72.159C14.6789 72.205 14.7019 72.2452 14.7287 72.2796C14.7632 72.3026 14.7996 72.3103 14.8379 72.3026C14.9336 72.2834 15.0342 72.2384 15.1395 72.1675C15.2544 72.0947 15.3683 72.0171 15.4813 71.9347C15.5923 71.8428 15.6948 71.7575 15.7886 71.679C15.8805 71.5908 15.9514 71.5219 16.0012 71.4721C16.1945 71.2939 16.3678 71.1148 16.521 70.9347C16.6742 70.7547 16.8168 70.5717 16.9489 70.3859C17.081 70.2001 17.2016 70.0067 17.3107 69.8055C17.4179 69.5948 17.5261 69.364 17.6352 69.1131C17.6658 69.0174 17.6984 68.8814 17.7328 68.7052C17.7653 68.5194 17.7988 68.3135 17.8332 68.0875C17.8657 67.8519 17.8982 67.6163 17.9307 67.3808C17.9632 67.1452 17.9986 66.924 18.0368 66.7171C18.0751 66.5103 18.121 66.3417 18.1746 66.2115C18.2263 66.0716 18.2904 65.9941 18.367 65.9787C18.4628 65.9596 18.5336 65.9653 18.5796 65.9959C18.6332 66.015 18.6754 66.0514 18.706 66.105C18.7463 66.1567 18.7779 66.2152 18.8009 66.2803C18.8335 66.3435 18.8699 66.4009 18.9101 66.4526C18.9216 66.4603 18.9484 66.4698 18.9905 66.4813C19.0308 66.4832 19.0614 66.487 19.0825 66.4928C19.184 66.5023 19.2366 66.5167 19.2405 66.5358C19.2539 66.5531 19.2587 66.577 19.2549 66.6077C19.2491 66.6287 19.252 66.6431 19.2635 66.6507C19.2731 66.6488 19.3257 66.6383 19.4215 66.6191L19.4646 66.6105C19.5776 66.5779 19.7183 66.5348 19.8869 66.4811C20.063 66.4159 20.2306 66.3575 20.3895 66.3057C20.5485 66.254 20.6835 66.207 20.7946 66.1649C20.9152 66.1208 20.9755 66.0988 20.9755 66.0988L21.3865 66.6589C21.1241 66.7911 20.902 66.9003 20.7201 66.9865C20.5362 67.0632 20.3553 67.1293 20.1772 67.1849C20.0086 67.2385 19.8229 67.2807 19.6199 67.3114C19.4265 67.3402 19.189 67.3728 18.9074 67.4092L18.8356 67.4983C18.7438 67.9848 18.6405 68.4387 18.5257 68.8601C18.4186 69.27 18.2731 69.6626 18.0893 70.0381C17.9036 70.4039 17.6816 70.7621 17.4231 71.1126C17.1723 71.4517 16.8602 71.7831 16.4868 72.1068C16.2494 72.3137 16.0062 72.5168 15.7573 72.7161C15.5064 72.9057 15.2326 73.0303 14.9357 73.0897C14.7538 73.1261 14.5939 73.1233 14.456 73.0812C14.3276 73.0372 14.2194 72.9692 14.1313 72.8773C14.0413 72.7758 13.9675 72.6562 13.91 72.5183C13.8602 72.3689 13.8199 72.2176 13.7892 72.0644L13.7202 71.7197Z" fill="#0075FF"/>
<path d="M21.278 69.4742C21.2856 69.4129 21.2942 69.3066 21.3038 69.1553C21.321 68.9925 21.3315 68.8211 21.3353 68.6411C21.3486 68.4592 21.3543 68.2887 21.3524 68.1297C21.3581 67.9593 21.3648 67.8434 21.3724 67.7821C21.3838 67.5408 21.401 67.2784 21.4239 66.995C21.4564 66.7096 21.5215 66.4376 21.6191 66.179C21.7167 65.9205 21.8612 65.6973 22.0527 65.5096C22.2518 65.3103 22.519 65.1772 22.8541 65.1101C22.9786 65.0851 23.0744 65.1158 23.1414 65.2019C23.2161 65.2766 23.2832 65.3628 23.3426 65.4604C23.3502 65.4987 23.3646 65.5705 23.3857 65.6759C23.4145 65.7697 23.4327 65.8358 23.4404 65.8741C23.5228 66.2858 23.5526 66.6583 23.5297 66.9916C23.5163 67.3229 23.4503 67.6399 23.3317 67.9425C23.2226 68.2432 23.0723 68.5373 22.8809 68.8246C22.6875 69.1023 22.4635 69.4012 22.2088 69.7211C22.205 69.7517 22.2002 69.8025 22.1945 69.8733C22.1888 69.9442 22.1888 69.994 22.1946 70.0227L22.2003 70.0514C22.2348 70.2238 22.2914 70.3569 22.3699 70.4507C22.4484 70.5445 22.5423 70.6154 22.6515 70.6632C22.7683 70.6996 22.8909 70.7149 23.0192 70.7091C23.1552 70.6918 23.2998 70.6679 23.453 70.6372C23.903 70.5471 24.3215 70.3985 24.7083 70.1916C25.0951 69.9847 25.4331 69.7078 25.7222 69.3611C25.7605 69.3036 25.8045 69.2251 25.8543 69.1255C25.9117 69.0144 25.9691 68.9033 26.0266 68.7922C26.084 68.6811 26.1491 68.5834 26.2218 68.4992C26.2927 68.4053 26.376 68.3488 26.4717 68.3296C26.5675 68.3104 26.6326 68.3372 26.6671 68.41C26.7016 68.4828 26.7265 68.5575 26.7419 68.6341C26.784 68.8447 26.7573 69.0592 26.6616 69.2776C26.5735 69.4844 26.4395 69.6856 26.2595 69.881C26.0872 70.0649 25.8785 70.2411 25.6334 70.4097C25.3979 70.5764 25.1585 70.7239 24.9153 70.8523C24.6721 70.9807 24.4346 71.088 24.2029 71.1742C23.9808 71.2585 23.7883 71.317 23.6255 71.3496C23.118 71.4512 22.6756 71.4552 22.2983 71.3614C21.9286 71.2562 21.6308 70.9622 21.4046 70.4797L21.278 69.4742ZM22.7653 66.2334C22.6083 66.4441 22.4868 66.6327 22.4006 66.7994C22.3221 66.9545 22.2647 67.1154 22.2284 67.2821C22.1997 67.4372 22.1787 67.6057 22.1653 67.7877C22.1615 67.9677 22.1587 68.1774 22.1568 68.4168C22.31 68.2368 22.4297 68.0634 22.5158 67.8968C22.6115 67.7282 22.6823 67.5596 22.7283 67.3911C22.7742 67.2225 22.799 67.0483 22.8028 66.8682C22.8047 66.6786 22.7922 66.467 22.7653 66.2334Z" fill="#0075FF"/>
<path d="M27.2245 68.5075C27.1555 68.5612 27.0789 68.6014 26.9947 68.6283C26.9085 68.6455 26.8223 68.6628 26.7361 68.68C26.6499 68.6973 26.5647 68.7193 26.4805 68.7462C26.3943 68.7634 26.3119 68.7998 26.2334 68.8554C26.0745 68.9071 25.9672 68.9186 25.9117 68.8899C25.8542 68.8516 25.8274 68.7923 25.8312 68.7118C25.835 68.6314 25.8704 68.5347 25.9374 68.4217C26.0044 68.3086 26.0887 68.2071 26.1902 68.1171C26.2821 68.029 26.3874 67.9581 26.5061 67.9044C26.6344 67.8488 26.7551 67.8297 26.8681 67.8469C26.7857 67.6841 26.7607 67.5347 26.7933 67.3987C26.8258 67.2628 26.9282 67.1775 27.1006 67.143C27.1868 67.1257 27.2653 67.12 27.3362 67.1257C27.4147 67.1199 27.4798 67.1467 27.5315 67.2061C27.6579 67.0911 27.8207 66.9092 28.0198 66.6601C28.217 66.4015 28.419 66.142 28.6257 65.8815C28.8402 65.6095 29.0364 65.371 29.2145 65.166C29.3906 64.9515 29.517 64.8365 29.5936 64.8212C29.6224 64.8154 29.6616 64.8125 29.7114 64.8125C29.7593 64.8029 29.8091 64.8029 29.8608 64.8125C29.9221 64.8201 29.97 64.8354 30.0044 64.8584C30.0466 64.8699 30.0724 64.8996 30.082 64.9475L30.2057 65.5651C30.1924 65.8466 30.1762 66.1138 30.1571 66.3666C30.1456 66.6079 30.139 66.8483 30.1371 67.0877C30.1429 67.3156 30.1593 67.5464 30.1861 67.78C30.213 68.0137 30.2523 68.2597 30.3041 68.5183C30.4573 68.4876 30.6325 68.4177 30.8298 68.3084C31.0366 68.1973 31.2405 68.0718 31.4416 67.932C31.6426 67.7921 31.8293 67.6551 32.0017 67.521C32.1721 67.3773 32.308 67.2605 32.4095 67.1704C32.4268 67.157 32.4631 67.1149 32.5187 67.044C32.5742 66.9731 32.6345 66.9013 32.6996 66.8285C32.7628 66.7461 32.8231 66.6743 32.8805 66.613C32.9456 66.5402 32.9858 66.4923 33.0012 66.4693C33.0165 66.4464 33.0596 66.4128 33.1304 66.3688C33.1993 66.3151 33.2376 66.2826 33.2453 66.2711C33.2817 66.2538 33.3181 66.2615 33.3545 66.294C33.3985 66.3151 33.4397 66.3467 33.478 66.3888C33.5144 66.4213 33.5422 66.4606 33.5614 66.5066C33.5882 66.541 33.6026 66.563 33.6045 66.5726C33.6236 66.6684 33.6045 66.7718 33.5471 66.8829C33.4897 66.994 33.4169 67.1032 33.3288 67.2104C33.2388 67.3081 33.1441 67.4068 33.0445 67.5064C32.9526 67.5945 32.8837 67.6731 32.8377 67.742C32.7688 67.7957 32.6472 67.8848 32.4729 68.0093C32.3083 68.1319 32.1302 68.2622 31.9387 68.4001C31.7472 68.5381 31.5643 68.6693 31.3901 68.7938C31.2254 68.9164 31.1086 69.0046 31.0397 69.0582C31.0224 69.0716 30.9822 69.0946 30.919 69.1272C30.8539 69.1502 30.7859 69.1837 30.7151 69.2278C30.6442 69.2718 30.5724 69.3111 30.4996 69.3456C30.4345 69.3686 30.3934 69.3868 30.3761 69.4002C30.2957 69.4462 30.2383 69.5075 30.2038 69.5841C30.1789 69.6588 30.1493 69.7345 30.1148 69.8111C30.0899 69.8858 30.0488 69.9538 29.9913 70.0151C29.9435 70.0745 29.8506 70.108 29.7127 70.1157C29.7012 70.108 29.6543 70.0975 29.5719 70.0841C29.4972 70.0593 29.4484 70.0392 29.4254 70.0238C29.163 69.9071 28.936 69.7932 28.7444 69.6821C28.5529 69.5711 28.3767 69.462 28.2158 69.3548C28.053 69.238 27.893 69.1107 27.7359 68.9728C27.5884 68.833 27.4179 68.6779 27.2245 68.5075ZM28.0143 67.7518C28.1101 67.882 28.2001 68.0084 28.2844 68.131C28.3783 68.2516 28.4808 68.3655 28.5919 68.4727C28.7011 68.5704 28.817 68.6518 28.9396 68.7168C29.0717 68.78 29.2211 68.8049 29.3877 68.7914C29.3781 68.644 29.3675 68.4668 29.356 68.26C29.3445 68.0531 29.3358 67.8358 29.33 67.6078C29.3242 67.3799 29.3241 67.1559 29.3298 66.9356C29.3432 66.7039 29.3671 66.4999 29.4015 66.3237L29.2579 66.3525C29.1258 66.4885 29.0032 66.6226 28.8903 66.7547C28.7849 66.8754 28.6796 66.9961 28.5743 67.1168C28.4671 67.2279 28.3819 67.3246 28.3187 67.407C28.3111 67.4185 28.2996 67.4357 28.2843 67.4587C28.2689 67.4817 28.2565 67.4942 28.2469 67.4961C28.2412 67.5171 28.2048 67.5593 28.1378 67.6225C28.0708 67.6857 28.0296 67.7288 28.0143 67.7518ZM29.3584 66.1082C29.3296 66.114 29.3201 66.1408 29.3297 66.1887C29.3373 66.227 29.3555 66.2433 29.3843 66.2375C29.4226 66.2298 29.4379 66.2069 29.4302 66.1686C29.4206 66.1207 29.3967 66.1006 29.3584 66.1082Z" fill="#0075FF"/>
<path d="M33.1647 65.4207C33.1761 65.3786 33.2029 65.3135 33.245 65.2254C33.2852 65.1277 33.2996 65.0501 33.2881 64.9927L33.2795 64.9496C33.2775 64.94 33.266 64.9323 33.245 64.9266C33.222 64.9113 33.2057 64.9046 33.1961 64.9065L32.9376 64.9583C32.704 65.0847 32.4368 65.193 32.1362 65.2831C31.8259 65.3751 31.5262 65.4451 31.237 65.493C30.9383 65.5429 30.6797 65.5698 30.4614 65.5736C30.2411 65.5679 30.1061 65.5402 30.0563 65.4904C30.0065 65.4406 30.0649 65.3592 30.2315 65.2462C30.3962 65.1236 30.7236 64.9684 31.2139 64.7806C31.2426 64.7748 31.3077 64.7518 31.4092 64.7116C31.4992 64.6637 31.6045 64.6177 31.7252 64.5736C31.8363 64.5314 31.9425 64.4902 32.044 64.45C32.1436 64.4002 32.2078 64.3724 32.2365 64.3666C32.2729 64.3494 32.3533 64.3283 32.4778 64.3034C32.6004 64.2689 32.7229 64.2344 32.8455 64.1999C32.9776 64.1635 33.1011 64.1337 33.216 64.1107C33.3405 64.0858 33.4267 64.0685 33.4746 64.059L33.5291 63.9584L34.2727 61.8525C34.2976 61.7778 34.3541 61.7117 34.4421 61.6542C34.5398 61.5948 34.6174 61.5593 34.6748 61.5478C34.7993 61.5229 34.896 61.5583 34.965 61.6541C35.032 61.7402 35.0752 61.8312 35.0943 61.927C35.0963 61.9365 35.0934 61.9471 35.0857 61.9586C35.0876 61.9681 35.0896 61.9777 35.0915 61.9873L35.103 62.0447L34.7788 63.7082L34.796 63.7943C34.8037 63.7331 34.8314 63.6976 34.8793 63.688C34.9368 63.6765 34.9798 63.6679 35.0086 63.6621C35.1522 63.6334 35.3006 63.6535 35.4539 63.7224C35.6071 63.7913 35.7 63.9071 35.7326 64.0699C35.7479 64.1465 35.7365 64.2135 35.6982 64.271C35.6599 64.3285 35.6101 64.3783 35.5488 64.4204C35.4876 64.4626 35.4205 64.5009 35.3478 64.5354C35.2731 64.5603 35.207 64.5785 35.1496 64.59C35.0346 64.613 34.9217 64.6207 34.8106 64.6131C34.7091 64.6035 34.6009 64.6103 34.486 64.6333C34.3806 64.6544 34.2964 64.731 34.2332 64.8632C34.1681 64.9857 34.1155 65.1457 34.0753 65.3429C34.0428 65.5287 34.0247 65.7365 34.0209 65.9664C34.0171 66.1962 34.0172 66.4203 34.021 66.6386C34.0249 66.8569 34.0355 67.059 34.0528 67.2447C34.0796 67.4286 34.1027 67.5684 34.1218 67.6642C34.1295 67.7025 34.1448 67.7791 34.1679 67.894C34.2004 68.007 34.2206 68.0826 34.2282 68.1209C34.2493 68.1764 34.2838 68.2243 34.3317 68.2645C34.3777 68.2952 34.4246 68.3306 34.4725 68.3708L34.8028 68.3046C35.1859 68.2279 35.5468 68.066 35.8858 67.8189C36.2343 67.5698 36.554 67.3016 36.8451 67.0143C36.8623 67.0008 36.8968 66.9491 36.9485 66.8591C37.0078 66.7576 37.0729 66.6599 37.1437 66.566C37.2127 66.4626 37.2739 66.3706 37.3275 66.2902C37.3907 66.2078 37.4367 66.1638 37.4654 66.158C37.5324 66.1446 37.6014 66.1656 37.6723 66.2212C37.7431 66.2767 37.7862 66.3428 37.8016 66.4194C37.838 66.6013 37.8065 66.7919 37.7069 66.9911C37.617 67.1884 37.4868 67.3837 37.3164 67.5772C37.144 67.7611 36.9411 67.9412 36.7075 68.1174C36.4738 68.2937 36.2364 68.4508 35.9951 68.5887C35.7634 68.7248 35.5374 68.8397 35.3172 68.9336C35.1066 69.0256 34.9294 69.086 34.7858 69.1148C34.6517 69.1416 34.51 69.155 34.3606 69.1551C34.2093 69.1455 34.0686 69.114 33.9383 69.0604C33.8081 69.0068 33.6931 68.9302 33.5935 68.8306C33.4939 68.7311 33.4268 68.5951 33.3923 68.4227L33.0731 66.8284L33.1647 65.4207Z" fill="#0075FF"/>
<path d="M37.3218 66.2615C37.3294 66.2002 37.338 66.0939 37.3476 65.9426C37.3648 65.7798 37.3753 65.6084 37.379 65.4283C37.3924 65.2464 37.3981 65.0759 37.3962 64.917C37.4019 64.7465 37.4085 64.6307 37.4162 64.5694C37.4276 64.328 37.4448 64.0657 37.4677 63.7822C37.5002 63.4968 37.5653 63.2249 37.6629 62.9663C37.7605 62.7077 37.905 62.4846 38.0965 62.2968C38.2956 62.0976 38.5628 61.9644 38.8979 61.8973C39.0224 61.8724 39.1182 61.903 39.1852 61.9892C39.2599 62.0638 39.327 62.15 39.3864 62.2477C39.394 62.286 39.4084 62.3578 39.4295 62.4631C39.4583 62.557 39.4765 62.623 39.4841 62.6613C39.5666 63.0731 39.5964 63.4456 39.5735 63.7788C39.5601 64.1102 39.4941 64.4271 39.3755 64.7298C39.2664 65.0305 39.1161 65.3245 38.9247 65.6118C38.7313 65.8896 38.5073 66.1884 38.2526 66.5083C38.2488 66.5389 38.244 66.5897 38.2383 66.6606C38.2326 66.7314 38.2326 66.7812 38.2383 66.81L38.2441 66.8387C38.2786 67.011 38.3351 67.1441 38.4137 67.238C38.4922 67.3318 38.5861 67.4026 38.6953 67.4505C38.8121 67.4868 38.9347 67.5021 39.063 67.4964C39.199 67.4791 39.3436 67.4551 39.4968 67.4244C39.9468 67.3343 40.3653 67.1858 40.7521 66.9788C41.1389 66.7719 41.4769 66.4951 41.766 66.1484C41.8043 66.0909 41.8483 66.0124 41.8981 65.9128C41.9555 65.8017 42.0129 65.6906 42.0704 65.5795C42.1278 65.4684 42.1929 65.3707 42.2656 65.2864C42.3365 65.1925 42.4198 65.136 42.5155 65.1169C42.6113 65.0977 42.6764 65.1245 42.7109 65.1972C42.7454 65.27 42.7703 65.3447 42.7856 65.4213C42.8278 65.632 42.8011 65.8465 42.7054 66.0648C42.6173 66.2717 42.4833 66.4728 42.3033 66.6682C42.131 66.8521 41.9223 67.0284 41.6772 67.197C41.4416 67.3636 41.2023 67.5112 40.9591 67.6395C40.7159 67.7679 40.4784 67.8752 40.2467 67.9615C40.0246 68.0458 39.8321 68.1042 39.6693 68.1368C39.1618 68.2385 38.7194 68.2424 38.3421 68.1486C37.9724 68.0434 37.6745 67.7495 37.4484 67.2669L37.3218 66.2615ZM38.8091 63.0206C38.6521 63.2313 38.5306 63.42 38.4444 63.5866C38.3659 63.7418 38.3085 63.9027 38.2722 64.0693C38.2435 64.2244 38.2224 64.393 38.2091 64.5749C38.2053 64.755 38.2025 64.9647 38.2006 65.2041C38.3538 65.024 38.4734 64.8506 38.5596 64.684C38.6553 64.5154 38.7261 64.3469 38.7721 64.1783C38.818 64.0098 38.8428 63.8355 38.8466 63.6555C38.8485 63.4659 38.836 63.2542 38.8091 63.0206Z" fill="#0075FF"/>
</svg>
