<svg id="Calque_1" data-name="Calque 1" xmlns="http://www.w3.org/2000/svg" viewBox="0 0 138.64 51.45"><title>mouette</title><path d="M17.25,80.86S31.82,52.63,43.11,50.68s27.07,1,27.07,1,9.73-.78,9.54-2.53-4.87-4.48-4.87-4.48H69a3.68,3.68,0,0,0,1,2.14c1,1.17.59,9.16.59,9.16l3.31,6.81s9.39,12.66,9.37,18.11,11.07,0,11.07,0S87.7,66.65,88.68,66.45,97.25,52,109.9,48.34s38.75-1.56,38.75-1.56-27.45-14.21-40.3-12.85S86.21,49.9,83.75,52,73.1,61.78,64,62.56,49,61.78,39.41,68,17.25,80.86,17.25,80.86Z" transform="translate(-14.9 -32.84)" style="fill:none;stroke:#000;stroke-miterlimit:10;stroke-width:2px"/></svg>