<svg width="141" height="60" viewBox="0 0 141 60" fill="none" xmlns="http://www.w3.org/2000/svg">
<g filter="url(#filter0_f)">
<path d="M57.5283 22.5962C50.695 21.0962 35.1283 18.9962 27.5283 22.5962C18.0283 27.0962 10.0283 46.0962 5.52832 51.5962C1.02832 57.0962 26.5283 38.5962 34.5283 35.0962C40.9283 32.2962 46.8617 32.9295 49.0283 33.5962C52.3617 33.4295 59.3283 32.7962 60.5283 31.5962C62.0283 30.0962 70.5283 25.0961 72.5283 22.5962C74.5283 20.0962 87.0283 3.5962 98.0283 5.0962C109.028 6.5962 128.528 13.5962 134.528 16.5962C140.528 19.5962 110.028 13.5962 98.0283 19.0962C88.4283 23.4962 80.0283 32.9295 77.0283 37.0962C78.195 40.9295 80.7283 49.1962 81.5283 51.5962C82.3283 53.9962 75.8617 54.2629 72.5283 54.0962C71.695 51.0962 69.5283 44.6962 67.5283 43.0962C65.5283 41.4962 61.0283 32.4295 59.0283 28.0962L58.2783 23.5962M58.2783 23.5962L57.5283 19.0962L56.0283 15.0962H63.0283L67.5283 19.0962C66.3617 20.4295 62.8783 23.1962 58.2783 23.5962Z" stroke="#F82155" stroke-width="2"/>
</g>
<path d="M57.5283 22.5962C50.695 21.0962 35.1283 18.9962 27.5283 22.5962C18.0283 27.0962 10.0283 46.0962 5.52832 51.5962C1.02832 57.0962 26.5283 38.5962 34.5283 35.0962C40.9283 32.2962 46.8617 32.9295 49.0283 33.5962C52.3617 33.4295 59.3283 32.7962 60.5283 31.5962C62.0283 30.0962 70.5283 25.0961 72.5283 22.5962C74.5283 20.0962 87.0283 3.5962 98.0283 5.0962C109.028 6.5962 128.528 13.5962 134.528 16.5962C140.528 19.5962 110.028 13.5962 98.0283 19.0962C88.4283 23.4962 80.0283 32.9295 77.0283 37.0962C78.195 40.9295 80.7283 49.1962 81.5283 51.5962C82.3283 53.9962 75.8617 54.2629 72.5283 54.0962C71.695 51.0962 69.5283 44.6962 67.5283 43.0962C65.5283 41.4962 61.0283 32.4295 59.0283 28.0962L58.2783 23.5962M58.2783 23.5962L57.5283 19.0962L56.0283 15.0962H63.0283L67.5283 19.0962C66.3617 20.4295 62.8783 23.1962 58.2783 23.5962Z" stroke="white" stroke-width="2"/>
<defs>
<filter id="filter0_f" x="-0.00012207" y="0" width="140.303" height="59.1363" filterUnits="userSpaceOnUse" color-interpolation-filters="sRGB">
<feFlood flood-opacity="0" result="BackgroundImageFix"/>
<feBlend mode="normal" in="SourceGraphic" in2="BackgroundImageFix" result="shape"/>
<feGaussianBlur stdDeviation="2" result="effect1_foregroundBlur"/>
</filter>
</defs>
</svg>
