<svg width="50" height="50" viewBox="0 0 50 50" fill="none" xmlns="http://www.w3.org/2000/svg">
<path d="M19.1406 22.9492C18.6016 22.9492 18.1641 23.3868 18.1641 23.9258C18.1641 24.4648 18.6016 24.9023 19.1406 24.9023C19.6796 24.9023 20.1172 24.4648 20.1172 23.9258C20.1172 23.3868 19.6796 22.9492 19.1406 22.9492Z" fill="black"/>
<path d="M43.4502 31.0477L40.2344 34.2635L38.9717 33.0008C38.5902 32.6194 37.9723 32.6194 37.5908 33.0008C37.2093 33.3819 37.2093 34.0003 37.5908 34.3817L39.5439 36.3349C39.7346 36.5256 39.9845 36.621 40.2344 36.621C40.4842 36.621 40.7341 36.5256 40.9248 36.3349L44.8311 32.4286C45.2126 32.0475 45.2126 31.4292 44.8311 31.0477C44.4496 30.6662 43.8316 30.6662 43.4502 31.0477Z" fill="black"/>
<path d="M49.0233 25.7811C47.9632 25.7811 47.1057 24.9522 47.0717 23.894C47.0546 23.3675 46.6228 22.9491 46.0956 22.9491H44.1405C44.1405 19.6944 44.1405 11.5145 44.1405 8.30065C44.1405 6.68513 42.8264 5.37097 41.2109 5.37097H2.92968C1.31416 5.37097 0 6.68513 0 8.30065V33.6912C0 35.3067 1.31416 36.6209 2.92968 36.6209H32.8571C34.4287 42.1923 40.0928 44.5444 41.2067 44.5444C41.4867 44.5444 41.5385 44.4658 41.8922 44.3602C43.1491 43.9844 46.4877 42.9861 48.7254 38.6412C49.5593 37.0218 49.9999 35.1999 49.9999 33.3731V26.7576C49.9999 26.2183 49.5627 25.7811 49.0233 25.7811ZM1.95312 13.1835H42.1874V17.0897H1.95312V13.1835ZM2.92968 7.32409H41.2109C41.7495 7.32409 42.1874 7.7624 42.1874 8.30065V11.2303H1.95312V8.30065C1.95312 7.7624 2.39105 7.32409 2.92968 7.32409ZM1.95312 33.6912V19.0428H42.1874V22.9491H36.328C35.7887 22.9491 35.3515 23.3862 35.3515 23.9256C35.3515 25.0025 34.4753 25.8787 33.3984 25.8787C32.859 25.8787 32.4218 26.3159 32.4218 26.8553V33.3731C32.4218 33.811 32.4439 34.2436 32.4874 34.6678H2.92968C2.39105 34.6678 1.95312 34.2295 1.95312 33.6912ZM48.0468 33.3731C48.0468 34.8906 47.6809 36.4031 46.9893 37.747C45.1316 41.353 42.3717 42.1782 41.3325 42.4887C41.2665 42.5085 41.2059 42.5268 41.1502 42.544C40.6486 42.3796 39.4263 41.8909 38.1774 40.9601C35.6143 39.0505 34.3749 36.4435 34.3749 33.3731V27.7083C35.7455 27.3543 36.827 26.2728 37.181 24.9022H45.2647C45.6405 26.2388 46.7017 27.2715 48.0468 27.6129V33.3731Z" fill="black"/>
<path d="M10.7422 28.8085H6.25C5.7106 28.8085 5.27344 29.2456 5.27344 29.785C5.27344 30.3244 5.7106 30.7616 6.25 30.7616H10.7422C11.2816 30.7616 11.7188 30.3244 11.7188 29.785C11.7188 29.2456 11.2816 28.8085 10.7422 28.8085Z" fill="black"/>
<path d="M19.1406 28.8085H14.6484C14.109 28.8085 13.6719 29.2456 13.6719 29.785C13.6719 30.3244 14.109 30.7616 14.6484 30.7616H19.1406C19.68 30.7616 20.1172 30.3244 20.1172 29.785C20.1172 29.2456 19.68 28.8085 19.1406 28.8085Z" fill="black"/>
<path d="M27.5391 28.8085H23.0469C22.5075 28.8085 22.0703 29.2456 22.0703 29.785C22.0703 30.3244 22.5075 30.7616 23.0469 30.7616H27.5391C28.0785 30.7616 28.5156 30.3244 28.5156 29.785C28.5156 29.2456 28.0785 28.8085 27.5391 28.8085Z" fill="black"/>
<path d="M6.25 24.9023H15.2344C15.7738 24.9023 16.2109 24.4652 16.2109 23.9258C16.2109 23.3864 15.7738 22.9492 15.2344 22.9492H6.25C5.7106 22.9492 5.27344 23.3864 5.27344 23.9258C5.27344 24.4652 5.7106 24.9023 6.25 24.9023Z" fill="black"/>
</svg>
