<svg width="89" height="19" viewBox="0 0 89 19" fill="none" xmlns="http://www.w3.org/2000/svg">
<path d="M2.38472 4.72281L3.25429 5.21665L3.25686 5.21206L2.38472 4.72281ZM4.32955 2.73131L3.83107 1.86439L3.82635 1.86713L4.32955 2.73131ZM10.1796 2.87134L10.7228 2.03177L10.7228 2.03177L10.1796 2.87134ZM12.1089 5.29848V6.29848H13.567L13.0417 4.93827L12.1089 5.29848ZM10.413 5.29848L9.50458 5.71663L9.77242 6.29848H10.413V5.29848ZM9.10604 3.7893L8.57321 4.63556L8.58022 4.63989L9.10604 3.7893ZM5.04524 3.7893L5.55096 4.65199L5.55096 4.65199L5.04524 3.7893ZM3.62941 5.29848L4.51217 5.76834L4.51524 5.76249L3.62941 5.29848ZM3.62941 9.8416L2.74356 10.3056L2.74666 10.3114L3.62941 9.8416ZM5.04524 11.3352L5.55096 10.4725L5.55096 10.4725L5.04524 11.3352ZM9.10604 11.3508L9.6275 12.2041L9.63186 12.2014L9.10604 11.3508ZM10.413 9.8416V8.8416H9.77242L9.50458 9.42346L10.413 9.8416ZM12.1089 9.8416L13.0405 10.2049L13.5722 8.8416H12.1089V9.8416ZM10.1796 12.2532L10.7158 13.0973L10.7228 13.0928L10.1796 12.2532ZM4.32955 12.3932L3.82635 13.2574L3.83279 13.2611L3.83928 13.2648L4.32955 12.3932ZM2.38472 10.4173L3.25428 9.92344L2.38472 10.4173ZM2.66902 7.57004C2.66902 6.66829 2.87061 5.89222 3.25428 5.21664L1.51516 4.22899C0.94456 5.23373 0.669021 6.35582 0.669021 7.57004H2.66902ZM3.25686 5.21206C3.64928 4.51254 4.17209 3.98016 4.83274 3.59549L3.82635 1.86713C2.84815 2.43672 2.07442 3.23201 1.51257 4.23356L3.25686 5.21206ZM4.82802 3.59822C5.49829 3.21281 6.24294 3.01561 7.08342 3.01561V1.01561C5.91166 1.01561 4.82038 1.29555 3.83107 1.8644L4.82802 3.59822ZM7.08342 3.01561C8.09817 3.01561 8.93634 3.25797 9.63634 3.71091L10.7228 2.03177C9.65952 1.34374 8.43359 1.01561 7.08342 1.01561V3.01561ZM9.63634 3.71091C10.3282 4.15857 10.8419 4.7935 11.176 5.6587L13.0417 4.93827C12.5668 3.70823 11.7943 2.72507 10.7228 2.03177L9.63634 3.71091ZM12.1089 4.29848H10.413V6.29848H12.1089V4.29848ZM11.3213 4.88034C10.9446 4.06184 10.3819 3.40236 9.63186 2.9387L8.58022 4.63989C8.97115 4.88156 9.27975 5.2282 9.50458 5.71663L11.3213 4.88034ZM9.63886 2.94306C8.89094 2.47215 8.02385 2.2603 7.08342 2.2603V4.2603C7.7196 4.2603 8.20092 4.40111 8.57323 4.63553L9.63886 2.94306ZM7.08342 2.2603C6.1642 2.2603 5.30753 2.47639 4.53952 2.9266L5.55096 4.65199C5.98615 4.39688 6.48827 4.2603 7.08342 4.2603V2.2603ZM4.53952 2.9266C3.76689 3.37952 3.16749 4.02518 2.74358 4.83448L4.51524 5.76249C4.7759 5.26486 5.12039 4.9044 5.55096 4.65199L4.53952 2.9266ZM2.74666 4.82863C2.31365 5.64217 2.11597 6.56686 2.11597 7.57004H4.11597C4.11597 6.83065 4.26059 6.24097 4.51215 5.76833L2.74666 4.82863ZM2.11597 7.57004C2.11597 8.56553 2.31468 9.4868 2.74358 10.3056L4.51524 9.37759C4.25956 8.88948 4.11597 8.29637 4.11597 7.57004H2.11597ZM2.74666 10.3114C3.1718 11.1102 3.77102 11.7474 4.53952 12.1979L5.55096 10.4725C5.11627 10.2177 4.77159 9.85918 4.51215 9.37175L2.74666 10.3114ZM4.53952 12.1979C5.30753 12.6481 6.1642 12.8642 7.08342 12.8642V10.8642C6.48827 10.8642 5.98615 10.7276 5.55096 10.4725L4.53952 12.1979ZM7.08342 12.8642C8.01854 12.8642 8.88141 12.66 9.62749 12.2041L8.58459 10.4975C8.21045 10.7261 7.72491 10.8642 7.08342 10.8642V12.8642ZM9.63186 12.2014C10.3819 11.7377 10.9446 11.0782 11.3213 10.2597L9.50458 9.42346C9.27975 9.91188 8.97115 10.2585 8.58022 10.5002L9.63186 12.2014ZM10.413 10.8416H12.1089V8.8416H10.413V10.8416ZM11.1772 9.47825C10.8441 10.3324 10.3308 10.9642 9.63634 11.4136L10.7228 13.0928C11.7917 12.4012 12.5646 11.4253 13.0405 10.2049L11.1772 9.47825ZM9.64335 11.4091C8.94246 11.8544 8.10173 12.0934 7.08342 12.0934V14.0934C8.43002 14.0934 9.6534 13.7722 10.7158 13.0973L9.64335 11.4091ZM7.08342 12.0934C6.23893 12.0934 5.49135 11.8994 4.81981 11.5216L3.83928 13.2648C4.82733 13.8206 5.91567 14.0934 7.08342 14.0934V12.0934ZM4.83274 11.529C4.16902 11.1426 3.64589 10.613 3.25428 9.92344L1.51516 10.9111C2.07781 11.9019 2.85122 12.6896 3.82635 13.2574L4.83274 11.529ZM3.25428 9.92344C2.87061 9.24786 2.66902 8.4718 2.66902 7.57004H0.669021C0.669021 8.78426 0.94456 9.90635 1.51516 10.9111L3.25428 9.92344ZM14.4343 2.15564V1.15564H13.6609L13.4664 1.90409L14.4343 2.15564ZM16.0057 2.15564L16.9267 2.54515L17.5143 1.15564H16.0057V2.15564ZM14.5121 5.68745V6.68745H15.1749L15.4331 6.07696L14.5121 5.68745ZM13.5163 5.68745L12.5485 5.43589L12.2232 6.68745H13.5163V5.68745ZM14.4343 3.15564H16.0057V1.15564H14.4343V3.15564ZM15.0847 1.76613L13.591 5.29794L15.4331 6.07696L16.9267 2.54515L15.0847 1.76613ZM14.5121 4.68745H13.5163V6.68745H14.5121V4.68745ZM14.4841 5.939L15.4021 2.4072L13.4664 1.90409L12.5485 5.43589L14.4841 5.939ZM25.3525 9.26593V10.2659H26.2544L26.3472 9.36883L25.3525 9.26593ZM18.5378 9.26593V8.26593H17.4742L17.5397 9.32754L18.5378 9.26593ZM19.3936 11.2419L18.7165 11.9778L18.7242 11.9848L18.732 11.9917L19.3936 11.2419ZM22.832 11.5219L23.4012 12.3441L23.4055 12.3412L22.832 11.5219ZM23.7033 10.3706V9.37059H22.9924L22.7588 10.0421L23.7033 10.3706ZM25.2281 10.3706L26.1914 10.6389L26.5446 9.37059H25.2281V10.3706ZM23.8589 12.3777L24.455 13.1806L24.4628 13.1747L23.8589 12.3777ZM19.1291 12.5955L18.6314 13.4629L18.6375 13.4663L19.1291 12.5955ZM17.6354 11.0552L16.755 11.5293L16.7581 11.535L17.6354 11.0552ZM17.6199 6.40314L18.503 6.8723L18.503 6.8723L17.6199 6.40314ZM19.098 4.8784L19.5848 5.75189L19.5896 5.74922L19.098 4.8784ZM23.4544 4.86284L22.9614 5.73286L22.9614 5.73286L23.4544 4.86284ZM24.8858 6.32535L24.0034 6.79594L24.0081 6.80477L24.013 6.8135L24.8858 6.32535ZM23.9367 8.11459V9.11459H24.9367V8.11459H23.9367ZM23.5788 6.72988L22.7233 7.24771L22.7296 7.25781L23.5788 6.72988ZM22.5986 5.84303L22.1423 6.73285L22.1559 6.73979L22.1696 6.74631L22.5986 5.84303ZM19.4091 6.21644L18.741 5.47235L18.7334 5.47929L19.4091 6.21644ZM18.5534 8.11459L17.5574 8.02521L17.4596 9.11459H18.5534V8.11459ZM24.3992 8.41021C24.3992 8.64169 24.3858 8.89239 24.3578 9.16303L26.3472 9.36883C26.3815 9.03788 26.3992 8.71808 26.3992 8.41021H24.3992ZM25.3525 8.26593H18.5378V10.2659H25.3525V8.26593ZM17.5397 9.32754C17.6042 10.3721 17.9718 11.2926 18.7165 11.9778L20.0706 10.5059C19.7781 10.2368 19.5752 9.8401 19.5359 9.20432L17.5397 9.32754ZM18.732 11.9917C19.455 12.6297 20.3324 12.942 21.3073 12.942V10.942C20.7886 10.942 20.3901 10.7876 20.0552 10.492L18.732 11.9917ZM21.3073 12.942C22.0727 12.942 22.7926 12.7655 23.4012 12.3441L22.2628 10.6997C22.0624 10.8385 21.7658 10.942 21.3073 10.942V12.942ZM23.4055 12.3412C23.9921 11.9305 24.4126 11.3753 24.6478 10.6991L22.7588 10.0421C22.6621 10.3202 22.5018 10.5325 22.2586 10.7027L23.4055 12.3412ZM23.7033 11.3706H25.2281V9.37059H23.7033V11.3706ZM24.2647 10.1023C24.0959 10.7087 23.767 11.1927 23.255 11.5806L24.4628 13.1747C25.32 12.5253 25.9039 11.6714 26.1914 10.6389L24.2647 10.1023ZM23.2628 11.5747C22.7818 11.9318 22.1515 12.14 21.3073 12.14V14.14C22.496 14.14 23.5668 13.84 24.455 13.1806L23.2628 11.5747ZM21.3073 12.14C20.6536 12.14 20.0997 11.9951 19.6207 11.7247L18.6375 13.4663C19.4446 13.9219 20.3429 14.14 21.3073 14.14V12.14ZM19.6267 11.7281C19.16 11.4603 18.7909 11.0838 18.5128 10.5754L16.7581 11.535C17.2061 12.3542 17.8327 13.0046 18.6314 13.4628L19.6267 11.7281ZM18.5159 10.5811C18.2425 10.0733 18.0909 9.46279 18.0909 8.72138H16.0909C16.0909 9.74327 16.3023 10.6886 16.755 11.5293L18.5159 10.5811ZM18.0909 8.72138C18.0909 7.975 18.2394 7.36857 18.503 6.8723L16.7368 5.93399C16.2951 6.76539 16.0909 7.70445 16.0909 8.72138H18.0909ZM18.503 6.8723C18.7689 6.37182 19.1269 6.00709 19.5848 5.75188L18.6111 4.00492C17.8035 4.45504 17.1762 5.1068 16.7368 5.93399L18.503 6.8723ZM19.5896 5.74922C20.0648 5.48093 20.628 5.33385 21.3073 5.33385V3.33385C20.3269 3.33385 19.4173 3.5498 18.6064 4.00758L19.5896 5.74922ZM21.3073 5.33385C21.9666 5.33385 22.5082 5.47608 22.9614 5.73286L23.9474 3.99282C23.1558 3.54428 22.2661 3.33385 21.3073 3.33385V5.33385ZM22.9614 5.73286C23.4211 5.99341 23.7621 6.34347 24.0034 6.79594L25.7681 5.85476C25.3456 5.06255 24.7323 4.4376 23.9474 3.99282L22.9614 5.73286ZM24.013 6.8135C24.263 7.26047 24.3992 7.78408 24.3992 8.41021H26.3992C26.3992 7.48047 26.1931 6.61418 25.7585 5.8372L24.013 6.8135ZM24.9367 8.11459C24.9367 7.4251 24.7828 6.77254 24.4281 6.20194L22.7296 7.25781C22.852 7.45477 22.9367 7.72536 22.9367 8.11459H24.9367ZM24.4343 6.21207C24.0947 5.65101 23.62 5.22109 23.0277 4.93976L22.1696 6.74631C22.4071 6.85913 22.5858 7.02044 22.7233 7.24768L24.4343 6.21207ZM23.055 4.95322C22.4962 4.66665 21.8862 4.53186 21.245 4.53186V6.53186C21.5996 6.53186 21.8921 6.60453 22.1423 6.73285L23.055 4.95322ZM21.245 4.53186C20.2956 4.53186 19.4422 4.84279 18.741 5.47239L20.0773 6.96049C20.3926 6.67732 20.7631 6.53186 21.245 6.53186V4.53186ZM18.7334 5.47929C18.0159 6.13697 17.6475 7.02095 17.5574 8.02521L19.5494 8.20398C19.6045 7.59014 19.8066 7.20868 20.0849 6.9536L18.7334 5.47929ZM18.5534 9.11459H23.9367V7.11459H18.5534V9.11459ZM28.5283 12.8133L28.1256 13.7286L28.1333 13.732L28.1411 13.7353L28.5283 12.8133ZM27.2992 11.8798L26.4966 12.4765L26.5042 12.4865L27.2992 11.8798ZM26.8013 10.4951V9.49506H25.7395L25.8031 10.555L26.8013 10.4951ZM28.2638 10.4951L29.2591 10.398L29.171 9.49506H28.2638V10.4951ZM28.855 11.5375L28.2475 12.3319L28.2587 12.3402L28.855 11.5375ZM31.5156 9.85716L31.0253 10.7287L31.0358 10.7346L31.0464 10.7403L31.5156 9.85716ZM29.9753 9.31261L29.7215 10.2799L29.7293 10.2819L29.9753 9.31261ZM28.4194 8.81473L28.011 9.72755L28.0253 9.73395L28.0398 9.7399L28.4194 8.81473ZM27.3925 8.05236L26.6186 8.6856L26.629 8.69841L26.6399 8.71086L27.3925 8.05236ZM27.3614 5.5163L26.5477 4.93506L26.5477 4.93507L27.3614 5.5163ZM28.4661 4.66058L28.8648 5.57765L28.8731 5.57403L28.8814 5.57027L28.4661 4.66058ZM33.3204 7.00993V8.00993H34.3716L34.3191 6.95999L33.3204 7.00993ZM31.9045 7.00993L30.9069 7.07953L30.9719 8.00993H31.9045V7.00993ZM31.36 5.93639L30.7174 6.70258L30.7233 6.70759L30.7294 6.7125L31.36 5.93639ZM28.8395 5.85859L28.253 5.04865L28.253 5.04865L28.8395 5.85859ZM28.6528 7.41445L27.9258 8.10108L27.9454 8.12185L27.9661 8.14147L28.6528 7.41445ZM29.3374 7.8501L28.9477 8.77106L28.9687 8.77994L28.99 8.78784L29.3374 7.8501ZM30.4887 8.20794L30.2221 9.17177L30.227 9.17308L30.4887 8.20794ZM31.9823 8.70582L31.5854 9.62368L31.596 9.62824L31.6066 9.63256L31.9823 8.70582ZM32.9625 9.42152L32.1963 10.0641L32.2023 10.0713L32.2084 10.0783L32.9625 9.42152ZM33.3982 10.6818H34.3982V10.6718L34.398 10.6618L33.3982 10.6818ZM33.0092 11.942L32.1878 11.3716L32.1878 11.3716L33.0092 11.942ZM31.9045 12.8289L32.3107 13.7427L32.3198 13.7385L31.9045 12.8289ZM30.2864 12.14C29.7447 12.14 29.2934 12.05 28.9155 11.8913L28.1411 13.7353C28.8005 14.0122 29.5212 14.14 30.2864 14.14V12.14ZM28.931 11.898C28.5448 11.728 28.2785 11.5147 28.0941 11.2731L26.5042 12.4865C26.9214 13.0331 27.4746 13.4422 28.1256 13.7286L28.931 11.898ZM28.1016 11.2831C27.9206 11.0396 27.8193 10.7659 27.7995 10.4352L25.8031 10.555C25.8455 11.2614 26.0761 11.9109 26.4967 12.4765L28.1016 11.2831ZM26.8013 11.4951H28.2638V9.49506H26.8013V11.4951ZM27.2685 10.5922C27.3381 11.3055 27.6842 11.901 28.2476 12.3318L29.4625 10.7431C29.3205 10.6346 29.2725 10.5351 29.2591 10.398L27.2685 10.5922ZM28.2587 12.3402C28.8377 12.7703 29.5366 12.942 30.2709 12.942V10.942C29.8434 10.942 29.5985 10.844 29.4514 10.7347L28.2587 12.3402ZM30.2709 12.942C30.9489 12.942 31.6142 12.7924 32.1551 12.3778L30.9382 10.7906C30.8568 10.853 30.6716 10.942 30.2709 10.942V12.942ZM32.1551 12.3778C32.6903 11.9675 33.0134 11.3835 33.0134 10.6818H31.0134C31.0134 10.7007 31.0115 10.7107 31.0106 10.7142C31.0099 10.7174 31.0093 10.7188 31.0085 10.7202C31.0082 10.7209 30.9955 10.7467 30.9382 10.7906L32.1551 12.3778ZM33.0134 10.6818C33.0134 10.343 32.9366 9.996 32.745 9.67869C32.5537 9.36173 32.2828 9.13241 31.9847 8.97404L31.0464 10.7403C31.0648 10.7501 31.0677 10.7542 31.0619 10.7489C31.0554 10.743 31.044 10.7308 31.0329 10.7124C31.0218 10.694 31.016 10.6778 31.0136 10.6682C31.0113 10.6594 31.0134 10.6625 31.0134 10.6818H33.0134ZM32.0058 8.98558C31.5568 8.73301 30.9405 8.52583 30.2212 8.34332L29.7293 10.2819C30.3999 10.452 30.8105 10.6079 31.0253 10.7287L32.0058 8.98558ZM30.229 8.34533C29.6203 8.18568 29.1478 8.03268 28.7989 7.88956L28.0398 9.7399C28.5 9.9287 29.0648 10.1076 29.7215 10.2799L30.229 8.34533ZM28.8278 7.90191C28.5682 7.78581 28.3426 7.61955 28.1451 7.39385L26.6399 8.71086C27.0233 9.149 27.4823 9.49099 28.011 9.72755L28.8278 7.90191ZM28.1665 7.41912C28.0654 7.29555 27.9724 7.09089 27.9724 6.71432H25.9724C25.9724 7.43722 26.1596 8.12459 26.6186 8.6856L28.1665 7.41912ZM27.9724 6.71432C27.9724 6.49241 28.0339 6.29535 28.1751 6.09754L26.5477 4.93507C26.1703 5.46333 25.9724 6.06495 25.9724 6.71432H27.9724ZM28.1751 6.09754C28.3127 5.90499 28.5259 5.725 28.8648 5.57765L28.0673 3.74351C27.452 4.01105 26.9288 4.40154 26.5477 4.93506L28.1751 6.09754ZM28.8814 5.57027C29.2082 5.42108 29.6073 5.33385 30.0997 5.33385V3.33385C29.3682 3.33385 28.6782 3.46444 28.0508 3.75089L28.8814 5.57027ZM30.0997 5.33385C30.8728 5.33385 31.392 5.52648 31.7521 5.82227L33.0216 4.27682C32.22 3.61835 31.2144 3.33385 30.0997 3.33385V5.33385ZM31.7521 5.82227C32.0909 6.10057 32.2925 6.47852 32.3216 7.05987L34.3191 6.95999C34.2652 5.88176 33.8445 4.95279 33.0216 4.27682L31.7521 5.82227ZM33.3204 6.00993H31.9045V8.00993H33.3204V6.00993ZM32.9021 6.94033C32.8527 6.2323 32.5481 5.61325 31.9906 5.16027L30.7294 6.7125C30.8357 6.79889 30.8941 6.89553 30.9069 7.07953L32.9021 6.94033ZM32.0026 5.17019C31.4515 4.708 30.764 4.53186 30.053 4.53186V6.53186C30.4416 6.53186 30.6253 6.6254 30.7174 6.70258L32.0026 5.17019ZM30.053 4.53186C29.4102 4.53186 28.7771 4.66911 28.253 5.04865L29.426 6.66854C29.5035 6.61243 29.6794 6.53186 30.053 6.53186V4.53186ZM28.253 5.04865C27.7087 5.4428 27.3883 6.02149 27.3883 6.71432H29.3883C29.3883 6.69759 29.39 6.691 29.3898 6.69194C29.3895 6.69327 29.3882 6.69749 29.3856 6.7023C29.3832 6.70697 29.3823 6.707 29.3865 6.70229C29.3911 6.69722 29.4027 6.68538 29.426 6.66854L28.253 5.04865ZM27.3883 6.71432C27.3883 7.22447 27.5575 7.71118 27.9258 8.10108L29.3798 6.72783C29.3788 6.72679 29.3805 6.72848 29.3833 6.73286C29.3861 6.73731 29.3884 6.74202 29.3899 6.74599C29.3913 6.74986 29.3911 6.75046 29.3904 6.74637C29.3896 6.74209 29.3883 6.73182 29.3883 6.71432H27.3883ZM27.9661 8.14147C28.2507 8.41026 28.5835 8.61697 28.9477 8.77106L29.727 6.92913C29.5519 6.85503 29.4282 6.77132 29.3394 6.68744L27.9661 8.14147ZM28.99 8.78784C29.3085 8.90581 29.7232 9.03376 30.2221 9.17176L30.7553 7.24413C30.2792 7.11244 29.9263 7.00183 29.6847 6.91235L28.99 8.78784ZM30.227 9.17308C30.8138 9.33222 31.2617 9.4837 31.5854 9.62368L32.3792 7.78796C31.9354 7.59602 31.3876 7.41559 30.7504 7.2428L30.227 9.17308ZM31.6066 9.63256C31.8369 9.72591 32.0302 9.86602 32.1963 10.0641L33.7287 8.77891C33.3555 8.33392 32.8953 7.99691 32.358 7.77908L31.6066 9.63256ZM32.2084 10.0783C32.303 10.1869 32.3916 10.3649 32.3984 10.7018L34.398 10.6618C34.3839 9.96136 34.1821 9.29922 33.7166 8.76474L32.2084 10.0783ZM32.3982 10.6818C32.3982 10.9504 32.3276 11.1704 32.1878 11.3716L33.8306 12.5124C34.2094 11.9668 34.3982 11.3466 34.3982 10.6818H32.3982ZM32.1878 11.3716C32.0458 11.5761 31.8285 11.7643 31.4892 11.9192L32.3198 13.7385C32.9348 13.4578 33.4539 13.0548 33.8306 12.5124L32.1878 11.3716ZM31.4984 11.915C31.1822 12.0556 30.7857 12.14 30.2864 12.14V14.14C31.0111 14.14 31.6933 14.0171 32.3107 13.7427L31.4984 11.915ZM37.1238 5.64077V4.64077H36.1238V5.64077H37.1238ZM37.3883 11.553L36.6812 12.2602L36.6919 12.2709L36.703 12.2812L37.3883 11.553ZM39.3487 11.802H40.3487V10.802H39.3487V11.802ZM39.3487 13V14H40.3487V13H39.3487ZM35.708 5.64077H36.708V4.64077H35.708V5.64077ZM34.6033 5.64077H33.6033V6.64077H34.6033V5.64077ZM34.6033 4.47388V3.47388H33.6033V4.47388H34.6033ZM35.708 4.47388V5.47388H36.708V4.47388H35.708ZM35.708 2.32679V1.32679H34.708V2.32679H35.708ZM37.1238 2.32679H38.1238V1.32679H37.1238V2.32679ZM37.1238 4.47388H36.1238V5.47388H37.1238V4.47388ZM39.3487 4.47388H40.3487V3.47388H39.3487V4.47388ZM39.3487 5.64077V6.64077H40.3487V5.64077H39.3487ZM36.1238 5.64077V10.6662H38.1238V5.64077H36.1238ZM36.1238 10.6662C36.1238 11.1797 36.2256 11.8045 36.6812 12.2602L38.0954 10.8459C38.1494 10.8999 38.156 10.9392 38.1482 10.9133C38.1395 10.8839 38.1238 10.8079 38.1238 10.6662H36.1238ZM36.703 12.2812C37.1656 12.7166 37.8002 12.802 38.3063 12.802V10.802C38.1464 10.802 38.0544 10.7862 38.0118 10.7746C37.9699 10.7633 38.011 10.7658 38.0737 10.8248L36.703 12.2812ZM38.3063 12.802H39.3487V10.802H38.3063V12.802ZM38.3487 11.802V13H40.3487V11.802H38.3487ZM39.3487 12H38.0729V14H39.3487V12ZM38.0729 12C37.4193 12 37.1155 11.8478 36.9767 11.7199L35.6218 13.191C36.2712 13.7892 37.1499 14 38.0729 14V12ZM36.9767 11.7199C36.8779 11.6289 36.708 11.368 36.708 10.6662H34.708C34.708 11.624 34.9322 12.5559 35.6218 13.191L36.9767 11.7199ZM36.708 10.6662V5.64077H34.708V10.6662H36.708ZM35.708 4.64077H34.6033V6.64077H35.708V4.64077ZM35.6033 5.64077V4.47388H33.6033V5.64077H35.6033ZM34.6033 5.47388H35.708V3.47388H34.6033V5.47388ZM36.708 4.47388V2.32679H34.708V4.47388H36.708ZM35.708 3.32679H37.1238V1.32679H35.708V3.32679ZM36.1238 2.32679V4.47388H38.1238V2.32679H36.1238ZM37.1238 5.47388H39.3487V3.47388H37.1238V5.47388ZM38.3487 4.47388V5.64077H40.3487V4.47388H38.3487ZM39.3487 4.64077H37.1238V6.64077H39.3487V4.64077ZM46.628 6.0453H45.628V9.79357L47.4951 6.54342L46.628 6.0453ZM47.8727 4.83172L48.3775 5.69493L48.3825 5.69202L47.8727 4.83172ZM51.8712 4.8784L51.361 5.73848L51.3673 5.74218L51.8712 4.8784ZM53.3337 6.4187L52.4506 6.88787L52.4537 6.89364L53.3337 6.4187ZM53.3337 11.0085L54.2198 11.472L54.2198 11.472L53.3337 11.0085ZM51.8712 12.5799L51.3567 11.7224L51.3504 11.7263L51.8712 12.5799ZM47.8882 12.6577L47.3713 13.5138L47.3808 13.5195L47.3903 13.525L47.8882 12.6577ZM46.628 11.4286L47.4871 10.9168L45.628 7.79614V11.4286H46.628ZM46.628 17.0452V18.0452H47.628V17.0452H46.628ZM45.2121 17.0452H44.2121V18.0452H45.2121V17.0452ZM45.2121 4.47388V3.47388H44.2121V4.47388H45.2121ZM46.628 4.47388H47.628V3.47388H46.628V4.47388ZM52.0268 7.02549L52.9054 6.54798L52.9054 6.54798L52.0268 7.02549ZM50.9688 5.93639L50.4727 6.80467L50.4815 6.80958L50.9688 5.93639ZM48.0749 5.95194L48.5711 6.82021L48.5775 6.81645L48.0749 5.95194ZM47.0169 7.05661L46.1419 6.57253L46.1383 6.57909L47.0169 7.05661ZM47.0169 10.4173L46.1341 10.8869L46.1401 10.8982L46.1464 10.9093L47.0169 10.4173ZM48.0749 11.5219L47.5634 12.3812L47.5754 12.3883L47.5875 12.3951L48.0749 11.5219ZM50.9688 11.5219L51.465 12.3902L51.4714 12.3864L50.9688 11.5219ZM52.0268 10.4173L52.9055 10.8948L52.9097 10.8869L52.0268 10.4173ZM47.4951 6.54342C47.6772 6.2263 47.958 5.94032 48.3775 5.69491L47.3678 3.96854C46.6879 4.36621 46.1388 4.88929 45.7609 5.54717L47.4951 6.54342ZM48.3825 5.69202C48.7688 5.46307 49.2364 5.33385 49.8175 5.33385V3.33385C48.9257 3.33385 48.0967 3.53655 47.3629 3.97143L48.3825 5.69202ZM49.8175 5.33385C50.4071 5.33385 50.9134 5.47294 51.361 5.73845L52.3814 4.01835C51.6051 3.55779 50.7422 3.33385 49.8175 3.33385V5.33385ZM51.3673 5.74218C51.8219 6.00733 52.1812 6.38081 52.4506 6.88786L54.2168 5.94955C53.7809 5.12893 53.1652 4.47554 52.3751 4.01462L51.3673 5.74218ZM52.4537 6.89364C52.715 7.37777 52.8627 7.97154 52.8627 8.70582H54.8627C54.8627 7.69754 54.6578 6.76656 54.2138 5.94377L52.4537 6.89364ZM52.8627 8.70582C52.8627 9.42676 52.7161 10.0317 52.4476 10.545L54.2198 11.472C54.6567 10.6369 54.8627 9.70671 54.8627 8.70582H52.8627ZM52.4476 10.545C52.1759 11.0644 51.8135 11.4483 51.3567 11.7224L52.3857 13.4374C53.1736 12.9647 53.7862 12.301 54.2198 11.472L52.4476 10.545ZM51.3504 11.7263C50.9042 11.9985 50.4017 12.14 49.8175 12.14V14.14C50.7477 14.14 51.6143 13.9081 52.3921 13.4336L51.3504 11.7263ZM49.8175 12.14C49.244 12.14 48.7766 12.0146 48.3861 11.7905L47.3903 13.525C48.1201 13.9439 48.9389 14.14 49.8175 14.14V12.14ZM48.4051 11.8016C47.9772 11.5433 47.6829 11.2455 47.4871 10.9168L45.7689 11.9404C46.1539 12.5867 46.6997 13.1083 47.3713 13.5138L48.4051 11.8016ZM45.628 11.4286V17.0452H47.628V11.4286H45.628ZM46.628 16.0452H45.2121V18.0452H46.628V16.0452ZM46.2121 17.0452V4.47388H44.2121V17.0452H46.2121ZM45.2121 5.47388H46.628V3.47388H45.2121V5.47388ZM45.628 4.47388V6.0453H47.628V4.47388H45.628ZM53.4158 8.70582C53.4158 7.92666 53.2579 7.19648 52.9054 6.54798L51.1482 7.503C51.3144 7.80876 51.4158 8.1988 51.4158 8.70582H53.4158ZM52.9054 6.54798C52.5617 5.91557 52.078 5.41025 51.4562 5.06319L50.4815 6.80958C50.7517 6.96039 50.9733 7.18115 51.1482 7.503L52.9054 6.54798ZM51.465 5.06814C50.8699 4.72812 50.2151 4.56298 49.5219 4.56298V6.56298C49.8866 6.56298 50.1964 6.64677 50.4727 6.80463L51.465 5.06814ZM49.5219 4.56298C48.8277 4.56298 48.1718 4.73889 47.5723 5.08744L48.5775 6.81645C48.8701 6.64637 49.1788 6.56298 49.5219 6.56298V4.56298ZM47.5788 5.0837C46.9669 5.43336 46.4902 5.9429 46.1419 6.57254L47.892 7.54067C48.083 7.19531 48.3117 6.9684 48.5711 6.82019L47.5788 5.0837ZM46.1383 6.57909C45.7871 7.22532 45.628 7.94954 45.628 8.72138H47.628C47.628 8.22778 47.7281 7.84216 47.8956 7.53412L46.1383 6.57909ZM45.628 8.72138C45.628 9.50118 45.7861 10.2327 46.1341 10.8869L47.8998 9.94766C47.7292 9.62687 47.628 9.22776 47.628 8.72138H45.628ZM46.1464 10.9093C46.4946 11.5254 46.9661 12.0257 47.5634 12.3812L48.5864 10.6626C48.3124 10.4996 48.0787 10.2634 47.8875 9.92521L46.1464 10.9093ZM47.5875 12.3951C48.1849 12.7285 48.8354 12.8953 49.5219 12.8953V10.8953C49.1711 10.8953 48.8569 10.8132 48.5623 10.6487L47.5875 12.3951ZM49.5219 12.8953C50.2151 12.8953 50.8699 12.7302 51.465 12.3902L50.4727 10.6537C50.1964 10.8115 49.8866 10.8953 49.5219 10.8953V12.8953ZM51.4714 12.3864C52.0844 12.0301 52.5634 11.5241 52.9054 10.8948L51.1482 9.93976C50.9716 10.2647 50.7453 10.4952 50.4662 10.6574L51.4714 12.3864ZM52.9097 10.8869C53.2588 10.2304 53.4158 9.49305 53.4158 8.70582H51.4158C51.4158 9.22551 51.3134 9.62909 51.1439 9.94766L52.9097 10.8869ZM55.7264 6.4187L56.6064 6.89365L56.6095 6.88786L55.7264 6.4187ZM57.1733 4.8784L56.6694 4.0146L56.6631 4.01835L57.1733 4.8784ZM61.1874 4.81617L60.6825 5.67935L60.6825 5.67935L61.1874 4.81617ZM62.4166 6.02974L61.5415 6.5138L63.4166 6.02974H62.4166ZM62.4166 4.47388V3.47388H61.4166V4.47388H62.4166ZM63.848 4.47388H64.848V3.47388H63.848V4.47388ZM63.848 13V14H64.848V13H63.848ZM62.4166 13H61.4166V14H62.4166V13ZM62.4166 11.413H63.4166V7.59551L61.545 10.9228L62.4166 11.413ZM61.1563 12.6577L61.6612 13.5209L61.6661 13.518L61.1563 12.6577ZM57.1733 12.5799L56.6524 13.4336L56.6524 13.4336L57.1733 12.5799ZM55.7264 11.0085L56.6125 10.545L56.6125 10.545L55.7264 11.0085ZM60.9696 5.95194L60.4581 6.81124L60.4701 6.81836L60.4822 6.82514L60.9696 5.95194ZM58.0757 5.93639L57.5796 5.06814L57.5796 5.06814L58.0757 5.93639ZM57.0333 7.02549L57.9119 7.503L57.9119 7.503L57.0333 7.02549ZM57.0333 10.4173L56.1504 10.8869L56.1547 10.8948L57.0333 10.4173ZM58.0757 11.5219L57.5642 12.3812L57.5719 12.3858L57.5796 12.3902L58.0757 11.5219ZM60.9696 11.5219L61.4658 12.3902L61.4722 12.3864L60.9696 11.5219ZM62.0276 10.4173L62.9063 10.8948L62.9105 10.8869L62.0276 10.4173ZM56.1974 8.70582C56.1974 7.97154 56.3451 7.37777 56.6064 6.89364L54.8463 5.94377C54.4023 6.76656 54.1974 7.69754 54.1974 8.70582H56.1974ZM56.6095 6.88786C56.8811 6.37653 57.2384 6.00251 57.6835 5.73845L56.6631 4.01835C55.8843 4.48036 55.2769 5.13321 54.8432 5.94955L56.6095 6.88786ZM57.6772 5.74218C58.1387 5.47297 58.6531 5.33385 59.2426 5.33385V3.33385C58.3177 3.33385 57.4526 3.55776 56.6694 4.01462L57.6772 5.74218ZM59.2426 5.33385C59.8429 5.33385 60.3106 5.46182 60.6825 5.67935L61.6923 3.95298C60.9648 3.52742 60.1359 3.33385 59.2426 3.33385V5.33385ZM60.6825 5.67935C61.0997 5.92334 61.3708 6.20511 61.5415 6.5138L63.2916 5.54568C62.923 4.87936 62.3747 4.35208 61.6923 3.95298L60.6825 5.67935ZM63.4166 6.02974V4.47388H61.4166V6.02974H63.4166ZM62.4166 5.47388H63.848V3.47388H62.4166V5.47388ZM62.848 4.47388V13H64.848V4.47388H62.848ZM63.848 12H62.4166V14H63.848V12ZM63.4166 13V11.413H61.4166V13H63.4166ZM61.545 10.9228C61.3624 11.2473 61.0771 11.5423 60.6465 11.7974L61.6661 13.518C62.3557 13.1093 62.9106 12.5745 63.2881 11.9033L61.545 10.9228ZM60.6514 11.7945C60.2774 12.0133 59.8142 12.14 59.227 12.14V14.14C60.1128 14.14 60.9357 13.9452 61.6612 13.5209L60.6514 11.7945ZM59.227 12.14C58.6428 12.14 58.1403 11.9985 57.6942 11.7263L56.6524 13.4336C57.4302 13.9081 58.2969 14.14 59.227 14.14V12.14ZM57.6942 11.7263C57.2467 11.4532 56.8864 11.0687 56.6125 10.545L54.8403 11.472C55.2716 12.2967 55.876 12.9598 56.6524 13.4336L57.6942 11.7263ZM56.6125 10.545C56.344 10.0317 56.1974 9.42676 56.1974 8.70582H54.1974C54.1974 9.70671 54.4034 10.6369 54.8403 11.472L56.6125 10.545ZM63.4166 8.72138C63.4166 7.94222 63.2587 7.21204 62.9062 6.56353L61.149 7.51856C61.3151 7.82432 61.4166 8.21436 61.4166 8.72138H63.4166ZM62.9062 6.56353C62.5625 5.93113 62.0788 5.42581 61.457 5.07875L60.4822 6.82514C60.7524 6.97595 60.974 7.19671 61.149 7.51856L62.9062 6.56353ZM61.4811 5.09265C60.8839 4.73716 60.2235 4.56298 59.5227 4.56298V6.56298C59.8798 6.56298 60.1841 6.64811 60.4581 6.81124L61.4811 5.09265ZM59.5227 4.56298C58.8294 4.56298 58.1746 4.72812 57.5796 5.06814L58.5718 6.80463C58.8481 6.64677 59.1579 6.56298 59.5227 6.56298V4.56298ZM57.5796 5.06814C56.9694 5.41683 56.4951 5.92155 56.1547 6.54798L57.9119 7.503C58.0901 7.17517 58.3108 6.95381 58.5718 6.80463L57.5796 5.06814ZM56.1547 6.54798C55.8022 7.19648 55.6443 7.92666 55.6443 8.70582H57.6443C57.6443 8.1988 57.7457 7.80876 57.9119 7.503L56.1547 6.54798ZM55.6443 8.70582C55.6443 9.49305 55.8012 10.2304 56.1504 10.8869L57.9161 9.94766C57.7467 9.62908 57.6443 9.22551 57.6443 8.70582H55.6443ZM56.1547 10.8948C56.4935 11.5182 56.9631 12.0234 57.5642 12.3812L58.5872 10.6626C58.317 10.5018 58.0917 10.2706 57.9119 9.93976L56.1547 10.8948ZM57.5796 12.3902C58.1746 12.7302 58.8294 12.8953 59.5227 12.8953V10.8953C59.1579 10.8953 58.8481 10.8115 58.5718 10.6537L57.5796 12.3902ZM59.5227 12.8953C60.2159 12.8953 60.8707 12.7302 61.4657 12.3902L60.4735 10.6537C60.1972 10.8115 59.8874 10.8953 59.5227 10.8953V12.8953ZM61.4722 12.3864C62.0852 12.0301 62.5642 11.5241 62.9062 10.8948L61.149 9.93976C60.9724 10.2647 60.7461 10.4952 60.467 10.6574L61.4722 12.3864ZM62.9105 10.8869C63.2585 10.2327 63.4166 9.50118 63.4166 8.72138H61.4166C61.4166 9.22776 61.3154 9.62687 61.1447 9.94766L62.9105 10.8869ZM67.6564 5.85859H66.6564L68.547 6.31337L67.6564 5.85859ZM68.7144 4.72281L68.2141 3.85691L68.2057 3.86189L68.7144 4.72281ZM70.4103 4.31829H71.4103V3.31829H70.4103V4.31829ZM70.4103 5.7808V6.7808H71.4103V5.7808H70.4103ZM67.6564 13V14H68.6564V13H67.6564ZM66.2406 13H65.2406V14H66.2406V13ZM66.2406 4.47388V3.47388H65.2406V4.47388H66.2406ZM67.6564 4.47388H68.6564V3.47388H67.6564V4.47388ZM68.547 6.31337C68.7127 5.98891 68.9355 5.75372 69.2231 5.58374L68.2057 3.86189C67.5805 4.23128 67.098 4.75327 66.7658 5.40382L68.547 6.31337ZM69.2147 5.58868C69.4978 5.42507 69.8817 5.31829 70.4103 5.31829V3.31829C69.6112 3.31829 68.8645 3.48119 68.2141 3.85695L69.2147 5.58868ZM69.4103 4.31829V5.7808H71.4103V4.31829H69.4103ZM70.4103 4.7808H70.0369V6.7808H70.4103V4.7808ZM70.0369 4.7808C69.0673 4.7808 68.1625 5.04756 67.5162 5.74875C66.8841 6.43453 66.6564 7.36779 66.6564 8.36353H68.6564C68.6564 7.63745 68.8254 7.27935 68.9868 7.10421C69.1341 6.94449 69.4194 6.7808 70.0369 6.7808V4.7808ZM66.6564 8.36353V13H68.6564V8.36353H66.6564ZM67.6564 12H66.2406V14H67.6564V12ZM67.2406 13V4.47388H65.2406V13H67.2406ZM66.2406 5.47388H67.6564V3.47388H66.2406V5.47388ZM66.6564 4.47388V5.85859H68.6564V4.47388H66.6564ZM73.7717 5.64077V4.64077H72.7717V5.64077H73.7717ZM74.0362 11.553L73.3291 12.2602L73.3398 12.2709L73.3508 12.2812L74.0362 11.553ZM75.9966 11.802H76.9966V10.802H75.9966V11.802ZM75.9966 13V14H76.9966V13H75.9966ZM72.3558 5.64077H73.3558V4.64077H72.3558V5.64077ZM71.2512 5.64077H70.2512V6.64077H71.2512V5.64077ZM71.2512 4.47388V3.47388H70.2512V4.47388H71.2512ZM72.3558 4.47388V5.47388H73.3558V4.47388H72.3558ZM72.3558 2.32679V1.32679H71.3558V2.32679H72.3558ZM73.7717 2.32679H74.7717V1.32679H73.7717V2.32679ZM73.7717 4.47388H72.7717V5.47388H73.7717V4.47388ZM75.9966 4.47388H76.9966V3.47388H75.9966V4.47388ZM75.9966 5.64077V6.64077H76.9966V5.64077H75.9966ZM72.7717 5.64077V10.6662H74.7717V5.64077H72.7717ZM72.7717 10.6662C72.7717 11.1797 72.8734 11.8045 73.3291 12.2602L74.7433 10.8459C74.7972 10.8999 74.8038 10.9392 74.7961 10.9133C74.7873 10.8839 74.7717 10.8079 74.7717 10.6662H72.7717ZM73.3508 12.2812C73.8134 12.7166 74.4481 12.802 74.9541 12.802V10.802C74.7943 10.802 74.7022 10.7862 74.6596 10.7746C74.6178 10.7633 74.6588 10.7658 74.7215 10.8248L73.3508 12.2812ZM74.9541 12.802H75.9966V10.802H74.9541V12.802ZM74.9966 11.802V13H76.9966V11.802H74.9966ZM75.9966 12H74.7208V14H75.9966V12ZM74.7208 12C74.0671 12 73.7634 11.8478 73.6245 11.7199L72.2696 13.191C72.9191 13.7892 73.7978 14 74.7208 14V12ZM73.6245 11.7199C73.5258 11.6289 73.3558 11.368 73.3558 10.6662H71.3558C71.3558 11.624 71.5801 12.5559 72.2696 13.191L73.6245 11.7199ZM73.3558 10.6662V5.64077H71.3558V10.6662H73.3558ZM72.3558 4.64077H71.2512V6.64077H72.3558V4.64077ZM72.2512 5.64077V4.47388H70.2512V5.64077H72.2512ZM71.2512 5.47388H72.3558V3.47388H71.2512V5.47388ZM73.3558 4.47388V2.32679H71.3558V4.47388H73.3558ZM72.3558 3.32679H73.7717V1.32679H72.3558V3.32679ZM72.7717 2.32679V4.47388H74.7717V2.32679H72.7717ZM73.7717 5.47388H75.9966V3.47388H73.7717V5.47388ZM74.9966 4.47388V5.64077H76.9966V4.47388H74.9966ZM75.9966 4.64077H73.7717V6.64077H75.9966V4.64077ZM77.7587 2.8091L78.4658 2.102L78.4658 2.102L77.7587 2.8091ZM77.7587 1.43994L78.4658 2.14705L78.4658 2.14705L77.7587 1.43994ZM79.0967 1.43994L78.3697 2.12657L78.3795 2.13695L78.3896 2.14705L79.0967 1.43994ZM79.0967 2.8091L78.3896 2.102L78.3795 2.1121L78.3697 2.12248L79.0967 2.8091ZM79.1279 4.47388H80.1279V3.47388H79.1279V4.47388ZM79.1279 13V14H80.1279V13H79.1279ZM77.712 13H76.712V14H77.712V13ZM77.712 4.47388V3.47388H76.712V4.47388H77.712ZM78.4433 2.08916C78.4337 2.08916 78.4308 2.08835 78.4331 2.08878C78.4356 2.08925 78.4412 2.09061 78.4485 2.0936C78.4558 2.0966 78.4619 2.10002 78.466 2.10278C78.4699 2.10544 78.4697 2.10593 78.4658 2.102L77.0516 3.51621C77.4303 3.8949 77.9147 4.08916 78.4433 4.08916V2.08916ZM78.4658 2.102C78.4619 2.09806 78.4624 2.09788 78.465 2.10182C78.4678 2.1059 78.4712 2.11195 78.4742 2.1193C78.4772 2.12661 78.4785 2.13221 78.479 2.13472C78.4795 2.13703 78.4786 2.13408 78.4786 2.12452H76.4786C76.4786 2.65307 76.6729 3.13752 77.0516 3.51621L78.4658 2.102ZM78.4786 2.12452C78.4786 2.11496 78.4795 2.11202 78.479 2.11433C78.4785 2.11683 78.4772 2.12244 78.4742 2.12975C78.4712 2.13709 78.4678 2.14314 78.465 2.14722C78.4624 2.15117 78.4619 2.15099 78.4658 2.14705L77.0516 0.732838C76.6729 1.11152 76.4786 1.59598 76.4786 2.12452H78.4786ZM78.4658 2.14705C78.4697 2.14311 78.4699 2.14361 78.466 2.14627C78.4619 2.14902 78.4558 2.15245 78.4485 2.15545C78.4412 2.15844 78.4356 2.1598 78.4331 2.16026C78.4308 2.1607 78.4337 2.15989 78.4433 2.15989V0.159889C77.9147 0.159889 77.4303 0.354151 77.0516 0.732838L78.4658 2.14705ZM78.4433 2.15989C78.4479 2.15989 78.4456 2.16028 78.438 2.15879C78.4301 2.15724 78.4193 2.15424 78.4072 2.14905C78.3951 2.14385 78.385 2.1379 78.3775 2.1326C78.3702 2.12742 78.3678 2.12454 78.3697 2.12657L79.8238 0.753321C79.4564 0.364396 78.9747 0.159889 78.4433 0.159889V2.15989ZM78.3896 2.14705C78.3936 2.15099 78.3931 2.15117 78.3904 2.14722C78.3877 2.14314 78.3842 2.13709 78.3812 2.12975C78.3782 2.12244 78.3769 2.11683 78.3764 2.11433C78.376 2.11202 78.3768 2.11496 78.3768 2.12452H80.3768C80.3768 1.59598 80.1825 1.11152 79.8038 0.732838L78.3896 2.14705ZM78.3768 2.12452C78.3768 2.13408 78.376 2.13703 78.3764 2.13472C78.3769 2.13221 78.3782 2.12661 78.3812 2.1193C78.3842 2.11195 78.3877 2.1059 78.3904 2.10182C78.3931 2.09788 78.3936 2.09806 78.3896 2.102L79.8038 3.51621C80.1825 3.13752 80.3768 2.65307 80.3768 2.12452H78.3768ZM78.3697 2.12248C78.3678 2.12451 78.3702 2.12162 78.3775 2.11645C78.385 2.11115 78.3951 2.1052 78.4072 2.1C78.4193 2.09481 78.4301 2.0918 78.438 2.09026C78.4456 2.08876 78.4479 2.08916 78.4433 2.08916V4.08916C78.9747 4.08916 79.4564 3.88465 79.8238 3.49573L78.3697 2.12248ZM78.1279 4.47388V13H80.1279V4.47388H78.1279ZM79.1279 12H77.712V14H79.1279V12ZM78.712 13V4.47388H76.712V13H78.712ZM77.712 5.47388H79.1279V3.47388H77.712V5.47388ZM87.5248 2.15564L88.5245 2.17764L88.547 1.15564H87.5248V2.15564ZM87.3536 9.93495V10.935H88.3319L88.3534 9.95695L87.3536 9.93495ZM86.1712 9.93495L85.1714 9.95695L85.1929 10.935H86.1712V9.93495ZM86 2.15564V1.15564H84.9778L85.0003 2.17764L86 2.15564ZM86.1401 12.8133L85.4329 13.5204L85.4329 13.5204L86.1401 12.8133ZM86.1401 11.4441L86.8472 12.1512L86.8472 12.1512L86.1401 11.4441ZM87.4781 11.4441L86.7511 12.1308L86.7609 12.1411L86.771 12.1512L87.4781 11.4441ZM87.4781 12.8133L86.771 12.1062L86.7609 12.1163L86.7511 12.1267L87.4781 12.8133ZM86.525 2.13365L86.3539 9.91296L88.3534 9.95695L88.5245 2.17764L86.525 2.13365ZM87.3536 8.93495H86.1712V10.935H87.3536V8.93495ZM87.1709 9.91296L86.9998 2.13365L85.0003 2.17764L85.1714 9.95695L87.1709 9.91296ZM86 3.15564H87.5248V1.15564H86V3.15564ZM86.8246 12.0934C86.8151 12.0934 86.8121 12.0925 86.8144 12.093C86.8169 12.0934 86.8225 12.0948 86.8299 12.0978C86.8372 12.1008 86.8433 12.1042 86.8473 12.107C86.8513 12.1096 86.8511 12.1101 86.8472 12.1062L85.4329 13.5204C85.8116 13.8991 86.2961 14.0934 86.8246 14.0934V12.0934ZM86.8472 12.1062C86.8432 12.1023 86.8437 12.1021 86.8464 12.106C86.8491 12.1101 86.8526 12.1161 86.8556 12.1235C86.8585 12.1308 86.8599 12.1364 86.8604 12.1389C86.8608 12.1412 86.86 12.1383 86.86 12.1287H84.86C84.86 12.6573 85.0543 13.1417 85.4329 13.5204L86.8472 12.1062ZM86.86 12.1287C86.86 12.1192 86.8608 12.1162 86.8604 12.1185C86.8599 12.121 86.8585 12.1266 86.8556 12.1339C86.8526 12.1413 86.8491 12.1473 86.8464 12.1514C86.8437 12.1554 86.8432 12.1552 86.8472 12.1512L85.4329 10.737C85.0543 11.1157 84.86 11.6002 84.86 12.1287H86.86ZM86.8472 12.1512C86.8511 12.1473 86.8513 12.1478 86.8473 12.1505C86.8433 12.1532 86.8372 12.1566 86.8299 12.1596C86.8225 12.1626 86.8169 12.164 86.8144 12.1645C86.8121 12.1649 86.8151 12.1641 86.8246 12.1641V10.1641C86.2961 10.1641 85.8116 10.3583 85.4329 10.737L86.8472 12.1512ZM86.8246 12.1641C86.8293 12.1641 86.827 12.1645 86.8193 12.163C86.8114 12.1614 86.8007 12.1584 86.7886 12.1532C86.7764 12.148 86.7663 12.1421 86.7589 12.1368C86.7516 12.1316 86.7492 12.1287 86.7511 12.1308L88.2051 10.7575C87.8378 10.3686 87.356 10.1641 86.8246 10.1641V12.1641ZM86.771 12.1512C86.7749 12.1552 86.7744 12.1554 86.7718 12.1514C86.769 12.1473 86.7656 12.1413 86.7626 12.1339C86.7596 12.1266 86.7582 12.121 86.7578 12.1185C86.7573 12.1162 86.7581 12.1192 86.7581 12.1287H88.7581C88.7581 11.6002 88.5639 11.1157 88.1852 10.737L86.771 12.1512ZM86.7581 12.1287C86.7581 12.1383 86.7573 12.1412 86.7578 12.1389C86.7582 12.1364 86.7596 12.1308 86.7626 12.1235C86.7656 12.1161 86.769 12.1101 86.7718 12.106C86.7744 12.1021 86.7749 12.1023 86.771 12.1062L88.1852 13.5204C88.5639 13.1417 88.7581 12.6573 88.7581 12.1287H86.7581ZM86.7511 12.1267C86.7492 12.1287 86.7516 12.1258 86.7589 12.1206C86.7663 12.1153 86.7764 12.1094 86.7886 12.1042C86.8007 12.099 86.8114 12.096 86.8193 12.0945C86.827 12.093 86.8293 12.0934 86.8246 12.0934V14.0934C87.356 14.0934 87.8378 13.8888 88.2051 13.4999L86.7511 12.1267Z" fill="#FFC700"/>
</svg>
