<svg width="50" height="50" viewBox="0 0 50 50" fill="none" xmlns="http://www.w3.org/2000/svg">
<g clip-path="url(#clip0)">
<path d="M20.7118 26.1949C20.5897 26.0792 20.4234 26.0214 20.2128 26.0214H18.495C18.2972 26.0214 18.0855 26.0414 17.8603 26.0813C17.6349 26.1214 17.4065 26.1749 17.175 26.2423L18.975 24.3981C19.2193 24.1496 19.4497 23.9045 19.6667 23.6623C19.8836 23.4202 20.074 23.1697 20.2382 22.9108C20.4025 22.6519 20.532 22.3792 20.6265 22.0928C20.7213 21.8065 20.7688 21.4949 20.7688 21.158C20.7688 20.7665 20.7003 20.4076 20.5634 20.0812C20.4266 19.755 20.2297 19.474 19.973 19.238C19.716 19.0024 19.4055 18.818 19.0415 18.6854C18.6771 18.5528 18.2677 18.4865 17.813 18.4865C17.3919 18.4865 16.9982 18.5423 16.6318 18.6536C16.2654 18.7653 15.9401 18.9347 15.656 19.162C15.3717 19.3895 15.1338 19.6738 14.9422 20.0147C14.7506 20.3557 14.6214 20.7558 14.554 21.2147L15.5898 21.3979C15.6403 21.4063 15.6897 21.4127 15.7382 21.4168C15.7866 21.421 15.832 21.4232 15.8742 21.4232C16.0509 21.4232 16.1908 21.3813 16.2942 21.297C16.3972 21.2129 16.4825 21.0759 16.55 20.8865C16.5919 20.7728 16.6478 20.6676 16.7173 20.5706C16.7868 20.4738 16.8699 20.3897 16.9667 20.318C17.0636 20.2464 17.173 20.1897 17.2953 20.1476C17.4171 20.1055 17.5521 20.0843 17.6995 20.0843C18.0573 20.0843 18.3237 20.1823 18.4984 20.378C18.6729 20.5739 18.7605 20.8549 18.7605 21.2211C18.7605 21.4444 18.7331 21.656 18.6783 21.8559C18.6236 22.0559 18.5416 22.256 18.432 22.4559C18.3224 22.6559 18.1836 22.859 18.0153 23.0654C17.8466 23.2717 17.6489 23.4885 17.4215 23.7158L14.769 26.3874C14.6426 26.5011 14.5541 26.6276 14.5037 26.7665C14.4533 26.9055 14.428 27.036 14.428 27.1581V27.7897H20.8953V26.6531C20.8949 26.4635 20.8338 26.3109 20.7118 26.1949Z" fill="black"/>
<path d="M27.501 24.2149H27.5009V18.5875H25.6315L21.3748 24.3096L21.5769 25.2759C21.6023 25.3896 21.6644 25.4842 21.7632 25.5601C21.8621 25.6359 21.9727 25.6738 22.0948 25.6738H25.7959V27.7896H27.5011V25.6738H28.0696C28.1916 25.6738 28.2855 25.638 28.3506 25.5662C28.416 25.4948 28.4485 25.4106 28.4485 25.3137V24.2149H27.501ZM25.8117 21.338C25.8012 21.5085 25.7958 21.6675 25.7958 21.8149H25.7957V24.2149H23.4273L25.8588 20.8107C25.8379 20.9917 25.822 21.1675 25.8117 21.338Z" fill="black"/>
<path d="M35.2125 22.6328C35.1156 22.3276 34.9727 22.0644 34.783 21.8433C34.5935 21.6222 34.3606 21.4498 34.085 21.3255C33.8093 21.2012 33.4922 21.1391 33.1346 21.1391C32.7513 21.1391 32.4218 21.2012 32.1461 21.3255C31.8704 21.4497 31.6146 21.6129 31.3788 21.8149V18.3348H29.4209V27.7896H31.3787V23.1222C31.5513 22.9666 31.7323 22.8423 31.9219 22.7496C32.1112 22.6569 32.3134 22.6106 32.5282 22.6106C32.8145 22.6106 33.0313 22.7002 33.1787 22.8791C33.3262 23.0581 33.3998 23.3076 33.3998 23.6275V27.7896H35.3577V23.6276C35.3577 23.2697 35.3094 22.9381 35.2125 22.6328Z" fill="black"/>
<path d="M0.385644 20.6018C0.291211 21.1336 0.212988 21.6765 0.15332 22.2156L1.72256 22.3895C1.77871 21.8845 1.85186 21.3759 1.94033 20.8779L0.385644 20.6018Z" fill="black"/>
<path d="M1.16455 17.437C1.00098 17.9529 0.852441 18.4811 0.723145 19.0065L2.25615 19.384C2.37744 18.8918 2.5165 18.3973 2.66963 17.9141L1.16455 17.437Z" fill="black"/>
<path d="M1.60372 23.912L0.0264694 23.8402C0.0088913 24.225 4.58361e-06 24.6153 4.58361e-06 24.9995C-9.30726e-05 25.1562 0.00137177 25.3127 0.0042038 25.4687L1.58291 25.4398C1.58028 25.2937 1.57881 25.1473 1.57891 25.0001C1.57901 24.6391 1.58731 24.273 1.60372 23.912Z" fill="black"/>
<path d="M2.35176 14.4012C2.12178 14.8919 1.90537 15.396 1.7085 15.8994L3.1791 16.4744C3.36328 16.0029 3.56602 15.5308 3.78145 15.0713L2.35176 14.4012Z" fill="black"/>
<path d="M2.95015 32.916L1.46411 33.4499C1.64683 33.9586 1.84868 34.4676 2.06392 34.9625L3.51196 34.3328C3.3104 33.8693 3.12134 33.3927 2.95015 32.916Z" fill="black"/>
<path d="M9.82441 42.8401L8.80078 44.0422C9.2126 44.3929 9.64141 44.7349 10.0755 45.0583L11.0189 43.7922C10.6122 43.4891 10.2104 43.1688 9.82441 42.8401Z" fill="black"/>
<path d="M7.63286 40.7145L6.46265 41.7742C6.82612 42.1757 7.20708 42.57 7.59487 42.946L8.69409 41.8127C8.33091 41.4603 7.97378 41.0908 7.63286 40.7145Z" fill="black"/>
<path d="M5.73589 38.3246L4.43823 39.2241C4.74634 39.6686 5.0729 40.1087 5.40903 40.532L6.64565 39.5504C6.33071 39.1534 6.02446 38.7411 5.73589 38.3246Z" fill="black"/>
<path d="M4.16558 35.7103L2.76196 36.4334C3.00942 36.9136 3.27603 37.3923 3.55444 37.8558L4.90776 37.0426C4.64712 36.6085 4.39731 36.1602 4.16558 35.7103Z" fill="black"/>
<path d="M2.11006 29.9832L0.566895 30.3174C0.681445 30.8462 0.815039 31.3782 0.964063 31.8983L2.48193 31.4632C2.34248 30.9764 2.21738 30.4785 2.11006 29.9832Z" fill="black"/>
<path d="M1.66045 26.9652L0.0869141 27.0955C0.131543 27.6344 0.194629 28.179 0.274414 28.7142L1.83613 28.4815C1.76123 27.9802 1.70225 27.4701 1.66045 26.9652Z" fill="black"/>
<path d="M44.7839 9.71423L43.5352 10.6805C43.845 11.0813 44.146 11.4974 44.4294 11.9174L45.7383 11.0341C45.4359 10.586 45.1147 10.142 44.7839 9.71423Z" fill="black"/>
<path d="M48.0588 15.3247L46.603 15.9361C46.7987 16.4021 46.9816 16.881 47.1469 17.3597L48.6396 16.8446C48.4632 16.3337 48.2678 15.8222 48.0588 15.3247Z" fill="black"/>
<path d="M3.92451 11.547C3.63281 12.0029 3.35254 12.4744 3.09131 12.9484L4.47412 13.7105C4.71875 13.2666 4.98135 12.8249 5.25469 12.3978L3.92451 11.547Z" fill="black"/>
<path d="M49.1199 18.4026L47.5967 18.8185C47.7302 19.3066 47.8489 19.8061 47.9499 20.3031L49.4972 19.9883C49.3892 19.4575 49.2623 18.924 49.1199 18.4026Z" fill="black"/>
<path d="M49.7699 21.5948L48.2053 21.808C48.2737 22.3089 48.3265 22.8198 48.3622 23.3268L49.9373 23.2156C49.899 22.6745 49.8427 22.1293 49.7699 21.5948Z" fill="black"/>
<path d="M46.6049 12.4133L45.2412 13.2094C45.4963 13.6463 45.7403 14.0977 45.9669 14.5509L47.3793 13.8454C47.1377 13.3616 46.877 12.8798 46.6049 12.4133Z" fill="black"/>
<path d="M8.10835 6.56958C7.70942 6.9355 7.31743 7.31899 6.9436 7.70933L8.08384 8.80142C8.43423 8.4356 8.80161 8.07622 9.17564 7.73325L8.10835 6.56958Z" fill="black"/>
<path d="M5.85513 8.92224C5.50669 9.33679 5.16772 9.76775 4.84741 10.2032L6.11938 11.1386C6.41938 10.7305 6.73716 10.3266 7.06372 9.93806L5.85513 8.92224Z" fill="black"/>
<path d="M7.12036 1.97375L10.0835 4.93694C9.83354 5.12297 9.58637 5.3135 9.34458 5.50774L10.334 6.73821C10.6204 6.50803 10.9147 6.28284 11.2123 6.06565L14.5525 9.40588V1.97375H7.12036ZM12.9737 5.59416L10.9322 3.55276H12.9737V5.59416Z" fill="black"/>
<path d="M40.1741 5.13037L39.2148 6.38447C39.6181 6.69297 40.016 7.01826 40.3976 7.35137L41.4359 6.16201C41.0289 5.80654 40.6043 5.45947 40.1741 5.13037Z" fill="black"/>
<path d="M42.6284 7.27307L41.5149 8.3928C41.8747 8.75042 42.2271 9.12434 42.5623 9.50403L43.7458 8.45901C43.3881 8.05364 43.0121 7.65471 42.6284 7.27307Z" fill="black"/>
<path d="M31.446 0.839111L31.0398 2.36489C31.5291 2.49517 32.0208 2.64351 32.5014 2.80571L33.0067 1.30981C32.4936 1.13657 31.9685 0.978271 31.446 0.839111Z" fill="black"/>
<path d="M36.9173 45.1671C36.4812 45.4252 36.0314 45.6723 35.5803 45.9011L36.2948 47.3092C36.7762 47.0649 37.2566 46.8013 37.7219 46.5256L36.9173 45.1671Z" fill="black"/>
<path d="M37.4616 3.32275L36.6736 4.69092C37.1126 4.94375 37.5495 5.21494 37.972 5.49639L38.8476 4.18252C38.3966 3.88203 37.9302 3.59268 37.4616 3.32275Z" fill="black"/>
<path d="M34.1984 46.5459C33.7334 46.7446 33.2556 46.9307 32.7783 47.0987L33.3025 48.588C33.8122 48.4086 34.3225 48.21 34.819 47.9978L34.1984 46.5459Z" fill="black"/>
<path d="M34.535 1.88293L33.9324 3.34241C34.4008 3.53587 34.8694 3.74768 35.3251 3.9718L36.0221 2.5551C35.5356 2.31555 35.0353 2.08958 34.535 1.88293Z" fill="black"/>
<path d="M39.4353 43.4451C39.0371 43.7574 38.6229 44.0609 38.2041 44.3473L39.0956 45.6505C39.5424 45.345 39.9845 45.021 40.4094 44.6879L39.4353 43.4451Z" fill="black"/>
<path d="M49.9996 24.8434L48.4207 24.8531C48.4209 24.9015 48.4211 24.95 48.421 25.0001C48.421 25.459 48.4076 25.9233 48.3811 26.3799L49.9574 26.4713C49.9857 25.9844 49.9999 25.4894 49.9999 25.0018C50.0001 24.949 49.9999 24.8961 49.9996 24.8434Z" fill="black"/>
<path d="M41.7105 41.4106C41.3561 41.7715 40.9845 42.1263 40.6057 42.4649L41.6583 43.6418C42.0624 43.2806 42.4588 42.9021 42.8371 42.5169L41.7105 41.4106Z" fill="black"/>
<path d="M48.2432 27.9004C48.1811 28.4045 48.1015 28.9118 48.0068 29.4084L49.5578 29.7041C49.6589 29.1739 49.7439 28.6321 49.8103 28.0941L48.2432 27.9004Z" fill="black"/>
<path d="M46.7135 33.7964C46.5224 34.2676 46.3136 34.7374 46.093 35.1928L47.5138 35.8813C47.7496 35.3948 47.9725 34.893 48.1766 34.3897L46.7135 33.7964Z" fill="black"/>
<path d="M43.7042 39.098C43.399 39.5026 43.0762 39.9024 42.7449 40.2865L43.9406 41.3177C44.2941 40.9078 44.6387 40.481 44.9646 40.0492L43.7042 39.098Z" fill="black"/>
<path d="M45.3821 36.5463C45.1321 36.9866 44.864 37.425 44.585 37.8495L45.9042 38.7169C46.202 38.2638 46.4884 37.7958 46.7553 37.3256L45.3821 36.5463Z" fill="black"/>
<path d="M47.6723 30.8976C47.5453 31.3878 47.4001 31.8803 47.241 32.3615L48.7399 32.8574C48.9099 32.3436 49.065 31.8176 49.2007 31.294L47.6723 30.8976Z" fill="black"/>
<path d="M25.2937 48.4191C24.7878 48.4253 24.2735 48.4154 23.7664 48.3892L23.6851 49.966C24.1213 49.9885 24.5637 49.9999 25.0001 49.9999C25.1045 49.9999 25.209 49.9993 25.3132 49.9978L25.2937 48.4191Z" fill="black"/>
<path d="M20.7353 48.0342L20.4497 49.5869C20.9806 49.6846 21.5227 49.7661 22.0612 49.8292L22.245 48.261C21.7404 48.2019 21.2325 48.1256 20.7353 48.0342Z" fill="black"/>
<path d="M12.2732 44.6649L11.4138 45.9895C11.8677 46.284 12.3376 46.5675 12.8107 46.832L13.5814 45.4539C13.1385 45.2061 12.6983 44.9407 12.2732 44.6649Z" fill="black"/>
<path d="M14.9388 46.1562L14.2595 47.5817C14.7486 47.8147 15.2518 48.0347 15.7552 48.235L16.3393 46.768C15.8678 46.5804 15.3968 46.3746 14.9388 46.1562Z" fill="black"/>
<path d="M17.7774 47.2865L17.291 48.7888C17.806 48.9554 18.3328 49.1072 18.8573 49.2397L19.244 47.7089C18.753 47.5846 18.2596 47.4427 17.7774 47.2865Z" fill="black"/>
<path d="M28.2497 0.209473L28.0461 1.77529C28.5492 1.84063 29.0561 1.92344 29.5528 2.02119L29.8579 0.47207C29.3278 0.367578 28.7867 0.279199 28.2497 0.209473Z" fill="black"/>
<path d="M28.337 48.1854C27.836 48.257 27.3254 48.3129 26.8193 48.3518L26.9404 49.9261C27.4805 49.8845 28.0253 49.8248 28.5599 49.7486L28.337 48.1854Z" fill="black"/>
<path d="M31.3231 47.5581C30.8351 47.6946 30.3363 47.8166 29.8408 47.9206L30.1652 49.4658C30.6944 49.3547 31.2271 49.2244 31.7485 49.0785L31.3231 47.5581Z" fill="black"/>
<path d="M25 0.00012207V1.57903C25.5075 1.57903 26.0211 1.59543 26.5265 1.62795L26.6278 0.0522705C26.0889 0.0177002 25.5413 0.00012207 25 0.00012207Z" fill="black"/>
<path d="M25.6844 4.00012H24.1055V8.21067H25.6844V4.00012Z" fill="black"/>
<path d="M25.6844 42.0526H24.1055V46.2632H25.6844V42.0526Z" fill="black"/>
<path d="M7.97373 24.3423H3.76318V25.9212H7.97373V24.3423Z" fill="black"/>
<path d="M46.0265 24.3423H41.8159V25.9212H46.0265V24.3423Z" fill="black"/>
</g>
<defs>
<clipPath id="clip0">
<rect width="50" height="50" fill="white"/>
</clipPath>
</defs>
</svg>
