<svg width="36" height="36" viewBox="0 0 36 36" fill="none" xmlns="http://www.w3.org/2000/svg">
<circle cx="18" cy="18" r="17.5" stroke="#1D1D1D"/>
<path d="M18.3131 9C22.5222 14.4924 24.6263 18.4003 24.6263 20.7244C24.6263 21.5535 24.463 22.3744 24.1457 23.1403C23.8285 23.9063 23.3634 24.6022 22.7772 25.1885C22.191 25.7747 21.495 26.2397 20.7291 26.557C19.9631 26.8742 19.1422 27.0375 18.3131 27.0375C17.4841 27.0375 16.6631 26.8742 15.8972 26.557C15.1313 26.2397 14.4353 25.7747 13.8491 25.1885C13.2628 24.6022 12.7978 23.9063 12.4806 23.1403C12.1633 22.3744 12 21.5535 12 20.7244C12 18.4003 14.1041 14.4924 18.3131 9Z" fill="#1D1D1D"/>
</svg>
